<svg id="Logo_Flat_All_Shapes" data-name="Logo Flat All Shapes" xmlns="http://www.w3.org/2000/svg" xmlns:xlink="http://www.w3.org/1999/xlink" width="17493.906" height="3880.38" viewBox="0 0 17493.906 3880.38">
  <metadata><?xpacket begin="﻿" id="W5M0MpCehiHzreSzNTczkc9d"?>
<x:xmpmeta xmlns:x="adobe:ns:meta/" x:xmptk="Adobe XMP Core 5.6-c142 79.160924, 2017/07/13-01:06:39        ">
   <rdf:RDF xmlns:rdf="http://www.w3.org/1999/02/22-rdf-syntax-ns#">
      <rdf:Description rdf:about=""/>
   </rdf:RDF>
</x:xmpmeta>
                                                                                                    
                                                                                                    
                                                                                                    
                                                                                                    
                                                                                                    
                                                                                                    
                                                                                                    
                                                                                                    
                                                                                                    
                                                                                                    
                                                                                                    
                                                                                                    
                                                                                                    
                                                                                                    
                                                                                                    
                                                                                                    
                                                                                                    
                                                                                                    
                                                                                                    
                                                                                                    
                           
<?xpacket end="w"?></metadata>
<defs>
    <style>
      .cls-1, .cls-2, .cls-3 {
        fill-rule: evenodd;
      }

      .cls-1 {
        fill: url(#linear-gradient);
      }

      .cls-3, .cls-4 {
        fill: #024270;
      }
    </style>
    <linearGradient id="linear-gradient" x1="3464" y1="2356" x2="3464" y2="152" gradientUnits="userSpaceOnUse">
      <stop offset="0" stop-color="#dee3e6"/>
      <stop offset="0.767" stop-color="#005888"/>
      <stop offset="1" stop-color="#005888"/>
    </linearGradient>
  </defs>
  <g id="Icon_2" data-name="Icon 2">
    <path class="cls-1" d="M3975,1765v591H2953V1765H2362v-21.3L3949,1726l617,25.22V1765H3975Zm-1613-63.13v-83.61L3940,1639l626,8.47v70.89L3947,1695Zm0-122.54v-84.48L3941,1541l625-14.67v75.78L3941,1608ZM3947,1506l-1585-62.06v-93.38L3325,1399l599,33,642-27.24v68.46l-22,9.78Zm1-177,618-57.58v75.73L3951,1398Zm5-114,613-78.09v81.18L3953,1297v-82Zm-6-110,619-120.28v102.02L3953,1180Zm232-186,133,49-131,34Zm-54,92-241,62,1-92,248-64Zm-719,127s76.22-46.71,160-57c114.77-14.1,247,7,247,7l-7,45s-144.42-17.34-258,3c-79.26,14.2-138,58-138,58Zm406,139-4,50s-102.11-9.01-208-2c-92.63,6.13-182,25-182,25l-2-45s79.92-27.77,168-34C3691.9,1263.37,3812,1277,3812,1277Zm-241-102c112.36-12.67,242,2,242,2l-5,54s-126.31-17.82-237-4c-79.91,9.97-151,40-151,40l-6-45S3488.57,1184.3,3571,1175Zm-246,165-2-88,48-9,1,94ZM4357,868l-201-72L3863,909s-182.71-28.936-329,6c-103.9,24.811-122,92-122,92l2,47s65.14-66.506,152-82c109.5-19.534,246,11,246,11l1,50s-149.36-10.82-284,14c-66.41,12.24-115,60-115,60l-127,48-6,181-919-50.02V743h591V152H3975V743h591V921.1L4358,967Z" transform="translate(-153.094 -134)"/>
    <g id="Text">
      <path id="apitol" class="cls-2" d="M1157.64,2154.93l34.05,84.06a131.114,131.114,0,0,1,4.7,12.35,24.875,24.875,0,0,1,1.18,6.77q0,15.54-26.65,15.54-7.44,0-7.44,7.74c0,3.98,2.21,5.97,6.66,5.97h1.56l25.08-2.61,29.78-1.3q8.61,0,29.78,1.95t30.17,1.96h1.57q6.66,0,6.66-6.27l0.39-4.7c0-1.82-2.09-2.74-6.27-2.74-4.96,0-8.42-.32-10.38-0.99a37.437,37.437,0,0,1-5.88-2.56,30.345,30.345,0,0,1-5.09-3.36q-2.16-1.77-4.12-3.74a73.348,73.348,0,0,1-6.66-10.46q-3.525-6.51-7.83-16.38l-94.44-220.59-3.91-11.44q-1.965-5.13-4.71-6.32t-11.75-1.18q-9.795,0-13.13,1.56t-4.9,7.06l-4.38,10.54-91.22,219.46-6.27,13.42a37.57,37.57,0,0,1-6.66,11.85,27.429,27.429,0,0,1-8.819,7.3q-4.5,2.175-16.261,5.33-4.307,1.185-4.31,6.32,0,7.89,6.661,7.89l14.5-1.76,26.641-1.76,23.51,1.76,18.81,1.76h1.96c3.14,0,4.7-2.35,4.7-7.05q0-4.3-1.17-5.48t-5.88-1.18l-9.01-1.21q-12.15-1.62-16.66-5.67t-4.5-12.95q0-7.68,4.16-19.02l32.77-79.87h83.01Zm-6.7-18.03h-68.81l34.71-83.49Zm650.04,21.55h25.47q54.855,0,86.79-21.83t31.93-59.28q0-36.255-29.58-58.29t-78.17-22.03q-12.93,0-25.27,1.17t-25.27,3.14q-4.71.39-18.03,0.39a414.7,414.7,0,0,1-44.28-2.35,27.741,27.741,0,0,0-7.05-1.18h-5.09q-7.455,0-7.45,7.81,0,5.955,5.44,6.69l10.48,1.97,15.14,1.18c3.11,0.52,5.82,2.43,8.16,5.71a20.263,20.263,0,0,1,3.49,12.01v197.99q0,17.715-.78,23.02a16.474,16.474,0,0,1-3.72,8.67,19.957,19.957,0,0,1-8.43,5.31,38.38,38.38,0,0,1-12.93,1.97l-12.54,1.45q-5.88.36-5.87,6.88,0,6.165,6.26,6.16h30.57a72.061,72.061,0,0,1,13.91-1.56h13.12q5.49,0,19.2.78t22.73,0.78q3.915,0,15.28,1.18t15.28,1.17q6.66,0,6.66-8.02c0-3.2-1.17-5.48-3.52-6.82s-6.93-2-13.72-2q-28.215,0-28.21-17.64v-94.43Zm0-125.38q0.39-2.355,1.38-6.47a16.342,16.342,0,0,1,2.17-5.68q6.285-8.235,24.4-8.23,25.185,0,41.72,18.81t16.53,47.02q0,29.775-15.94,46.43t-45.46,16.65l-24.8-.78V2033.07Zm670.03,17.68q0-19.605,2.74-26.29,2.745-6.66,11.76-8.63l12.15-2.75,10.58-1.17c4.43,0,6.66-2.09,6.66-6.27,0-5.49-3.03-8.23-9.06-8.23q-7.5,0-21.29,2.35-3.93,0-19.89.98t-24.63.98q-13.005,0-26.2-.96-13.2-.945-32.11-3.35h-1.97c-3.95,0-5.91,2.67-5.91,8.03q0,4.965,2.59,6.31c1.72,0.89,6.32,1.33,13.77,1.33q9.975,0.8,13.97,1.97a18.626,18.626,0,0,1,6.78,3.54,16.855,16.855,0,0,1,5.19,9.25q0.8,4.92.8,23.02v179.45q0,24.8-3.92,31.48t-19.98,8.66l-12.15,1.57q-7.05,1.185-7.05,7.48c0,4.45,2.35,6.69,7.05,6.69l23.51-1.96,31.74-1.18,47.41,1.57,22.33,1.57h1.96q5.49,0,5.49-4.32c0-4.44-.66-7.06-1.96-7.85l-3.13-1.56-12.15-1.18q-13.725-1.17-19.4-5.5-5.685-4.305-5.68-12.95V2050.75Zm459.62-32.24v50.76q0,5.325,8.23,5.33c4.17,0,6.66-2.09,7.44-6.27q2.745-13.71,4.51-19.4a39.349,39.349,0,0,1,5.29-10.77,27.7,27.7,0,0,1,4.7-5.68,49.257,49.257,0,0,1,6.27-4.9q15.66-10.965,47.8-10.97,16.455,0,21.16,4.9t5.68,8.44q0.975,3.54.98,17.26v193.07q0,13.74-2.35,19.03t-10.19,8.83q-7.83,3.525-25.07,5.1-5.88.39-5.88,6.67,0,7.455,7.05,7.45l27.43-3.13,33.31-1.18q7.83,0.4,16.84.79t27.43,0.39a100.945,100.945,0,0,1,14.7.9,69.674,69.674,0,0,1,10.38,2.23h3.13q4.71,0,4.71-7.23c0-3.48-1.12-5.76-3.33-6.83q-3.345-1.605-13.52-1.61-20.385-1.95-25.28-8.82-4.89-6.84-4.89-31.15V2046.39q0-18.42,5.68-24.1t24.88-5.68q31.74,0,46.43,11.13t19.4,38.75q0.375,5.76,8.62,5.76,7.83,0,7.83-8.23l-1.96-19.59-0.78-29-0.39-17.24h-86.6l-51.33,2.75-53.44-2.75h-26.32q-15.72,0-58.55,1.96v18.36ZM3623,2200.97a160.333,160.333,0,0,0,27.82,44.47q39.165,43.11,104.61,43.1,64.665,0,106.19-39.97t41.54-101.87a163.57,163.57,0,0,0-12.15-61.52q-12.15-30.165-32.52-50.55-38.01-38-97.96-38-65.055,0-106.97,40.75-41.94,40.755-41.93,103.83l0.39,9.01Q3612.02,2175.3,3623,2200.97Zm192.39-142.83q28.98,45.075,28.99,108.93a196.275,196.275,0,0,1-1.96,29.59,173.422,173.422,0,0,1-5.88,25.27q-7.44,22.725-25.46,36.44a65.559,65.559,0,0,1-40.76,13.71q-43.095,0-72.88-45.06t-29.78-110.89l0.4-10.58q0-41.13,22.33-66.8t54.86-25.67Q3786.395,2013.08,3815.39,2058.14Zm706.07,229.22h11.37q15.66,0,46.62-3.52l16.85-41.54,9.01-21.16,0.79-4.31q0-5.085-10.58-5.09-4.32,0-7.84,6.23-10.575,17.13-20.57,27.05a77.542,77.542,0,0,1-22.92,15.75,91.511,91.511,0,0,1-21.36,5.84q-10.77,1.56-29.19,1.55-41.925,0-49.76-7.42a15.982,15.982,0,0,1-4.7-9.17q-0.8-5.28-.79-24.03V2057.61q0-22.65,3.14-30.86,3.135-8.19,12.54-10.55a43.864,43.864,0,0,1,12.34-2.92q6.465-.585,11.95-0.59,7.05,0,7.05-6.66,0-7.83-6.66-7.84a115.208,115.208,0,0,0-16.45,1.18q-5.88,0-35.66,1.96-5.88.39-15.28,0.39l-47.81-1.96-15.28-1.57q-6.27,0-6.27,7.84,0,5.1,2.77,6.66t11.87,1.57q16.6,0,23.32,7.45,5.145,4.32,5.15,13.74v195.43q0,18.435-.79,23.35a17.035,17.035,0,0,1-4.31,8.83,12.58,12.58,0,0,1-7.64,5.49,77.266,77.266,0,0,1-10.58,2.36q-5.28.78-12.34,1.56-6.27,0-6.27,5.88,0,9.015,6.66,9.01l23.12-3.52q4.3,0,18.61-.59t22.14-.59l39.18,1.18,33.7,1.32Z" transform="translate(-153.094 -134)"/>
      <path id="C" class="cls-2" d="M517.527,2311.75q3.789,5.25,14.3,5.25,9.917,0,11.671-11.67l2.335-22.17,4.085-29.77,5.835-29.76,4.669-19.26,0.584-4.66q0-9.93-14.59-9.93-7.591,0-12.839,9.98-15.182,31.68-30.637,48.69-15.469,17.025-40.559,30.51-36.191,19.965-70.03,19.95-30.937,0-60.108-15.8-29.188-15.8-44.936-40.39-33.852-52.095-33.847-140.48,0-89.565,33.264-139.9T378.927,1912a126.992,126.992,0,0,1,62.735,16.41q29.462,16.425,51.063,46.3a173.726,173.726,0,0,1,16.34,26.66q6.416,13.185,15.757,40.15,2.913,9.375,11.671,9.37,15.169,0,15.173-13.42c-0.392-2.33-.784-3.69-1.167-4.08l-3.5-24.51q-4.091-25.68-6.42-54.28-2.338-28.575-2.334-51.35,0-12.255-12.255-12.26c-7.395,0-11.088,2.46-11.088,7.34l-2.334,17.65q-2.928,14.115-11.088,14.11l-9.338-2.92-15.173-9.92q-43.769-28.575-101.542-28.59-88.713,0-148.229,62.44-59.526,62.46-59.525,155.82,0,95.715,56.315,155.52,56.312,59.82,146.77,59.82a252.748,252.748,0,0,0,34.431-2.34,324.541,324.541,0,0,0,35.307-7,231.836,231.836,0,0,0,37.349-13.13q18.957-8.46,31.805-15.47Q513.725,2306.505,517.527,2311.75Z" transform="translate(-153.094 -134)"/>
      <path id="Y" class="cls-2" d="M4414.21,2776.07v17.74q0,6.705-6.09,13a23.535,23.535,0,0,1-9.12,5.92q-4.785,1.575-14.78,1.57-12.615,1.125-16.52,2.61c-2.62.99-3.92,2.73-3.92,5.21q0,7.065,8.62,7.07h1.73q16.365,0,38.36-1.37,21.975-1.38,34.05-1.37l40.94,1.17q3.45,0.39,10.78,1.57h13.79q7.755,0,7.76-7.45c0-3.39-.88-5.48-2.61-6.27s-6.53-1.17-14.35-1.17q-20.46-1.56-25.66-8.03c-3.49-4.31-5.22-8.29-5.22-11.95v-82.68l72.41-112.85q8.175-12.54,14.22-20.77a147.873,147.873,0,0,1,9.48-11.36q9.915-9,19.83-10.97l9.48-1.18c4.02-.78,6.04-2.6,6.04-5.48,0-5.74-2.31-8.62-6.9-8.62h-1.72l-15.52,1.96-22.41,1.17-34.05-1.17a84.1,84.1,0,0,1-10.78-.49,52.572,52.572,0,0,1-6.89-1.47h-3.02q-5.175,0-5.17,7.51c0,2.89.35,4.67,1.07,5.33s4.67,1.51,11.86,2.56q19.815,3.57,19.82,17.78,0,7.9-7.28,18.96l-61.76,98.57-61.56-104.13a84.951,84.951,0,0,1-6.03-11.15,17.82,17.82,0,0,1-1.29-6.46q0-12.915,18.53-14.88l9.05-.78q7.335-1.17,7.33-7.44,0-5.865-8.19-5.87l-20.69,1.96q-5.175,0-20.26.98t-22.41.98l-38.79-1.18q-5.61,0-10.77-.27a39.468,39.468,0,0,1-11.21-2.47h-3.88q-5.175,0-5.17,8.28c0,2.36.29,3.8,0.86,4.33s3.6,1.32,9.05,2.36q12.075,1.59,19.4,8.28a71.412,71.412,0,0,1,10.34,11.03,192.962,192.962,0,0,1,12.93,20.1l76.29,121.78v59.5Z" transform="translate(-153.094 -134)"/>
      <path id="niversit" class="cls-2" d="M853.317,2775.12q0,21.945-4.525,28.8t-22.629,8.81l-14.654,2.35q-8.193,0-8.189,7.84c0,4.17,1.865,6.27,5.6,6.27h2.155l17.24-1.18,37.93-1.17,30.6,0.88,24.567,1.47q6.889,0,6.9-7.45c0-2.6-.721-4.31-2.155-5.09l-4.311-1.57H908.487q-21.981-2.34-27.8-9.62-5.82-7.245-5.819-30.82V2609.37l188.352,196.7a151.3,151.3,0,0,0,13.36,12.93q5.175,4.32,9.48,7.45a36.558,36.558,0,0,0,17.68,4.7q12.495,0,12.5-9.43l-0.44-1.57-2.58-12.58a98.894,98.894,0,0,1-1.73-14.54q-0.42-8.25-.43-22.4V2594.2q0-14.535.87-19.65a18.581,18.581,0,0,1,4.74-9.43q3.87-4.32,11.2-6.68,2.16-.78,12.07-2.36l15.52-2.61a6.49,6.49,0,0,0,3.02-5.97c0-4.73-1.88-7.09-5.61-7.09h-2.15l-17.67,2.18-33.19,1.74-32.33-1.74a133.557,133.557,0,0,0-13.36-1.75c-4.03-.28-6.75-0.43-8.19-0.43q-8.19,0-8.19,7.05,0,5.49,3.23,7.05t15.3,1.57q20.265,0,26.73,7.27t6.46,30.03v159.4L912.366,2565.19q-16.385-17.7-21.551-21.24t-13.792-3.54l-1.724.52-32.757,2.61c-4.31,0-9.7-.12-16.163-0.39a118.479,118.479,0,0,1-16.163-1.57H807.2q-6.042,0-6.035,8.23,0,6.27,10.345,7.45,7.323,1.56,16.378,7.05a65.559,65.559,0,0,1,12.715,9.6,153.324,153.324,0,0,1,12.715,14.69v186.52Zm595.663-181.37q0-19.605,3.01-26.29,3.015-6.66,12.93-8.63l13.37-2.75,11.63-1.17q7.335,0,7.33-6.27,0-8.235-9.97-8.23-8.235,0-23.41,2.35-4.335,0-21.88.98-17.565.975-27.09,0.98-14.31,0-28.82-.96-14.535-.945-35.33-3.35h-2.17q-6.495,0-6.49,8.03c0,3.31.94,5.41,2.84,6.31s6.95,1.33,15.16,1.33q10.965,0.8,15.36,1.97a21.257,21.257,0,0,1,7.46,3.54q4.83,4.335,5.7,9.25,0.885,4.92.89,23.02v179.45q0,24.8-4.31,31.48t-21.98,8.66l-13.37,1.57q-7.755,1.185-7.75,7.48c0,4.45,2.58,6.69,7.75,6.69l25.86-1.96,34.92-1.18,52.15,1.57,24.57,1.57h2.15c4.02,0,6.04-1.44,6.04-4.32q0-6.66-2.16-7.85l-3.45-1.56-13.36-1.18q-15.09-1.17-21.33-5.5-6.255-4.305-6.25-12.95V2593.75Zm323.59,172.45,9.48,19.56q3.435,6.66,5.81,11.74t3.66,8.61l5.61,18.39c1.42,5.47,5.74,8.22,12.91,8.22h6.89l12.93-1.18c1.14,0,2.15-.85,3.01-2.55s1.86-5.29,3.01-10.78a104.438,104.438,0,0,1,4.74-16.08q3.015-7.845,8.19-18.43l12.92-27.06,68.14-160.24q11.655-26.745,20.31-34.33l6.48-3.59,6.91-2.4h5.19q3.885,0,5.18-1.57t1.3-6.26q0-7.065-6.89-7.06l-12.5.91-26.72,1.84-22.42-1.57-17.67-1.18h-3.02q-6.465,0-6.46,7.45c0,3.4.71,5.48,2.15,6.27l11.64,1.17q11.64,1.98,15.95,5.35t4.31,10.88q0,8.7-6.47,24.13l-74.12,170.85-71.56-175.55q-6.465-17.235-6.46-21.55,0-10.965,18.96-14.11l7.76-1.17q6.03-1.14,6.03-6.48,0-7.245-6.46-7.24c-2.31.27-5.17,0.46-8.62,0.59s-7.98.53-13.58,1.18-15.02.98-28.23,0.98h-11.21q-14.655,0-23.7-.46a101.009,101.009,0,0,1-17.24-2.29h-15.52q-6.465,0-6.47,5.88c0,3.4.29,5.55,0.87,6.47s2.01,1.37,4.3,1.37q13.35,1.56,18.74,5.48,5.37,3.9,10.55,15.25l9.04,21.13Zm574.21-224.55q-6.045-.45-18.11-0.46-3.45,0-25.21,1.37t-42.46,1.38q-10.77.39-22.19,0.78t-23.92.39l-38.8-1.17q-26.3,0-28.44-2.75h-3.88q-6.045,0-6.04,8.44,0,4.83,3.24,6.03,3.225,1.215,15.3,1.21,19.395,1.56,24.13,8.24a27.533,27.533,0,0,1,3.24,12.55c0.14,4.72.21,9.55,0.21,14.53v182.47q0,15.315-.86,21a20.57,20.57,0,0,1-3.45,9.22q-4.74,7.065-24.57,9.03l-13.36,1.56c-5.17,0-7.76,2.1-7.76,6.27q0,8.625,9.92,8.62l28.01-3.44,32.33-.87q13.35,0.4,27.15.79t24.14,0.39l47.41,3.13h12.93q15.09-1.56,28.45-2.54t38.79-.98l24.14-54.08,4.31-9.01,0.86-3.52q0-5.1-10.29-5.1c-2.86,0-4.94.47-6.22,1.39s-2.93,3.09-4.93,6.5a89.964,89.964,0,0,1-19.09,23.09q-12.225,10.86-24.01,15.98a99.626,99.626,0,0,1-24.01,7.1,197.156,197.156,0,0,1-30.66,1.97q-19.725,0-29.38-1.56t-14.36-5.51a17.428,17.428,0,0,1-4.07-5.49,14.418,14.418,0,0,1-1.51-6.3l-1.29-5.5v-11l1.29-99.82h32.76q18.525,0,25.21,3.14t11,12.93l3.87,13.32,2.16,12.54q1.29,8.22,8.62,8.23,9.045,0,9.05-5.88v-3.14l-0.86-16.84q0-3.915.65-24.3t1.5-39.18a116.525,116.525,0,0,0,1.73-18.42c0-4.96-3.17-7.44-9.48-7.44-5.76,0-8.62,2.35-8.62,7.05q0,12.15-2.81,19.79a28.929,28.929,0,0,1-7.97,12.15,24.015,24.015,0,0,1-11.21,5.68q-6.03,1.17-22.41,1.17h-33.19v-70.25q0-23.01,16.38-25.75a233.124,233.124,0,0,1,24.14-1.17q34.035,0,52.15,3.53,8.19,1.56,12.5,4.7t8.41,10.38a64.425,64.425,0,0,1,6.25,15.87l4.31,18.02c1.14,4.71,4.74,7.06,10.77,7.06s9.05-1.7,9.05-5.1l-0.43-3.92q-1.29-4.3-1.72-14.69t-0.43-24.49l0.86-27.03q-8.625,0-39.22-2.29h0Zm370.67,150.4,68.96,98.4q12.06,16.605,18.75,23.91t13.58,9.68a72.573,72.573,0,0,0,20.04,5.14q10.56,1.185,32.11,1.18,25.86,0,33.62-3.13,3.015-1.56,3.02-5.88,0-7.44-6.47-7.83l-7.76-1.19-9.48-3.16a41.544,41.544,0,0,1-10.34-5.54q-4.755-2.775-13.15-11.67a173.929,173.929,0,0,1-14.44-17.2l-66.81-90.55a223.071,223.071,0,0,0,25.65-7.81,91.349,91.349,0,0,0,17.45-9.38q31.47-19.545,31.47-52.76,0-32.415-29.31-52.75-29.31-20.31-76.29-20.32-15.945,0-46.55,2.12l-37.93,1.41q-24.135,0-50.86-2.35l-15.08-1.18c-5.76,0-8.62,2.41-8.62,7.24,0,4.55.71,7.1,2.15,7.63l4.74,0.81,11.64,1.96,15.52,1.17a15.467,15.467,0,0,1,9.69,5.49,16.179,16.179,0,0,1,4.1,10.97v198.66a164.073,164.073,0,0,1-.86,20.18,20.938,20.938,0,0,1-3.67,9.79q-2.805,3.735-9.05,6.07a42.18,42.18,0,0,1-14.87,2.36q-4.74.39-10.34,1.17c-3.74.53-6.19,1.24-7.33,2.16s-1.72,2.81-1.72,5.68c0,5.22,2.43,7.83,7.32,7.83h2.16a625.776,625.776,0,0,1,70.25-4.31q21.12,0,38.79,1.73l30.61,2.58h1.72q7.755,0,7.76-7.05c0-3.65-1.17-6-3.48-7.05s-7.83-1.57-16.52-1.57q-21.72-1.575-26.94-7.47-5.22-4.71-5.21-10.61V2692.05h21.98Zm-21.98-113.88a25.1,25.1,0,0,1,5.63-12.63q7.35-8.67,29-8.67,27.285,0,43.52,17.04t16.24,45.65q0,54.465-66.25,54.46h-28.14v-95.85Zm415.49,235.35q13.35,7.83,32.33,12.93a136.927,136.927,0,0,0,35.34,5.09q40.935,0,71.12-25.47,30.165-25.47,30.17-59.56,0-25.47-19.4-48.58t-53.44-38.4l-24.14-10.98q-25.86-11.355-40.95-20.76-3.015-2.745-6.89-6.08a58,58,0,0,1-5.61-5.29q-7.755-10.185-7.76-20.37,0-17.64,12.94-28.6t33.18-10.98a61.8,61.8,0,0,1,33.62,9.8,70.794,70.794,0,0,1,24.57,26.25q6.03,10.98,13.36,35.27,2.16,7.05,3.88,9.01t6.04,1.96q9.465,0,9.48-8.62v-2.74l-1.3-26.65q0-13.71.87-25.27t2.58-23.71l0.43-2.35q0-6.66-9.48-6.66c-3.16,0-5.46.92-6.9,2.74l-3.44,9.8c-2.31,3.92-5.46,5.88-9.49,5.88a12.958,12.958,0,0,1-5.81-1.38,97.015,97.015,0,0,1-8.41-4.89,92.316,92.316,0,0,0-26.51-10.97,123.833,123.833,0,0,0-30.81-3.92q-36.21,0-60.99,21.74t-24.79,53.88a68.743,68.743,0,0,0,5.61,28.02,59.829,59.829,0,0,0,16.16,21.74,166.663,166.663,0,0,0,22.63,16.26,282.19,282.19,0,0,0,30.6,15.48l26.29,11.76q28.875,13.32,40.52,25.86a42.768,42.768,0,0,1,11.64,30.17q0,20.775-17.25,35.26-17.235,14.505-41.8,14.5a70.97,70.97,0,0,1-41.17-12.93q-18.75-12.93-24.35-32.13a124.393,124.393,0,0,1-3.23-12.54q-1.08-5.475-2.37-14.5l-1.29-15.28v-3.92q0-5.475-7.57-5.48c-6.17,0-9.24,2.21-9.24,6.63q-1.74,12.495-3.45,21.86a148.936,148.936,0,0,1-3.88,16.38l-10.35,37.07-1.72,5.07c0,2.08,1.72,3.78,5.17,5.08l5.61,1.16a6.439,6.439,0,0,0,5.6-3.38q6.03-5.625,11.21-5.63a14,14,0,0,1,9.05,3.14Zm468.94-219.77q0-19.605,3.02-26.29,3-6.66,12.93-8.63l13.36-2.75,11.63-1.17q7.335,0,7.33-6.27,0-8.235-9.97-8.23-8.235,0-23.4,2.35-4.335,0-21.89.98t-27.09.98q-14.3,0-28.82-.96t-35.33-3.35h-2.16q-6.51,0-6.5,8.03,0,4.965,2.85,6.31c1.89,0.89,6.95,1.33,15.15,1.33q10.965,0.8,15.36,1.97a21.257,21.257,0,0,1,7.46,3.54q4.83,4.335,5.71,9.25t0.88,23.02v179.45q0,24.8-4.31,31.48t-21.98,8.66l-13.36,1.57q-7.77,1.185-7.76,7.48c0,4.45,2.58,6.69,7.76,6.69l25.86-1.96,34.91-1.18,52.15,1.57,24.57,1.57h2.15c4.02,0,6.04-1.44,6.04-4.32q0-6.66-2.16-7.85l-3.45-1.56-13.36-1.18q-15.09-1.17-21.33-5.5-6.255-4.305-6.25-12.95V2593.75Zm212.49-32.24v50.76q0,5.325,9.05,5.33c4.59,0,7.33-2.09,8.19-6.27q3-13.71,4.95-19.4a38.463,38.463,0,0,1,5.82-10.77,28.619,28.619,0,0,1,5.18-5.68,53.914,53.914,0,0,1,6.89-4.9q17.235-10.965,52.59-10.97,18.09,0,23.27,4.9t6.25,8.44q1.065,3.54,1.08,17.26v193.07q0,13.74-2.59,19.03t-11.21,8.83q-8.625,3.525-27.58,5.1-6.465.39-6.47,6.67,0,7.455,7.76,7.45l30.17-3.13,36.64-1.18q8.61,0.4,18.53.79t30.17,0.39a121.978,121.978,0,0,1,16.17.9,83.215,83.215,0,0,1,11.42,2.23h3.45q5.175,0,5.17-7.23c0-3.48-1.23-5.76-3.66-6.83q-3.675-1.605-14.87-1.61-22.425-1.95-27.8-8.82-5.4-6.84-5.39-31.15V2589.39q0-18.42,6.25-24.1t27.37-5.68q34.905,0,51.07,11.13t21.34,38.75c0.28,3.84,3.45,5.76,9.48,5.76q8.61,0,8.62-8.23l-2.15-19.59-0.87-29-0.43-17.24H4001l-56.46,2.75-58.79-2.75h-28.96q-17.295,0-64.4,1.96v18.36Z" transform="translate(-153.094 -134)"/>
      <path id="U" class="cls-2" d="M215.525,2725.53q0,79.95,49.021,115.55,25.084,18.09,60.108,27.42t77.033,9.34q90.45,0,131.888-53.69a131.158,131.158,0,0,0,18.967-30.93,79.953,79.953,0,0,0,6.711-31.51V2528.28q0-18.09,1.167-29.77,1.163-11.655,3.5-15.17,2.914-7.575,13.131-10.5t13.714-3.5q11.079-2.325,19.258-3.8,8.166-1.44,8.17-9.63,0-10.5-9.337-10.5l-18.675,2.33-49.02,1.75q-15.756,0-32.972-.43-17.22-.45-26.553-1.32l-4.085-2.33q-9.93,0-9.921,13.42c0,4.29.967,6.81,2.918,7.59s7.778,1.17,17.507,1.17q25.674,0,33.556,11.98t7.878,49.38v186.46q0,42.075-2.334,56.11t-11.672,29.22q-28.011,45-100.959,45-68.866,0-96.29-35.54-13.431-16.3-17.507-32.63-4.091-16.305-4.085-51.85l-3.5-196.37v-5.24q0-32.04,6.419-40.49t32.1-12.53l17.508-3.5,5.252-1.71q3.5-1.7,3.5-7.96,0-12.495-10.5-12.51l-31.513,2.33q-18.1,2.925-43.769,2.92h-7q-20.435-1.155-35.6-2.04-15.182-.87-35.6-0.88-4.091-.57-12.255-2.33H164.754q-11.68,0-11.672,12.84,0,8.175,3.867,10.5t18.136,2.34q18.438,0,23.489,1.16a16.118,16.118,0,0,1,8.626,5.26q8.316,8.745,8.325,46.68v201.34Z" transform="translate(-153.094 -134)"/>
      <path id="edical" class="cls-2" d="M978.753,3066.65q-5.931-.45-17.773-0.46-3.393,0-24.756,1.37t-41.683,1.38q-10.583.39-21.794,0.78t-23.486.39l-38.086-1.17q-25.818,0-27.93-2.75h-3.808q-5.931,0-5.925,8.44,0,4.83,3.174,6.03,3.174,1.215,15.023,1.21,19.043,1.56,23.7,8.24a27.959,27.959,0,0,1,3.174,12.55c0.138,4.72.211,9.55,0.211,14.53v182.47q0,15.315-.846,21a20.861,20.861,0,0,1-3.386,9.22q-4.66,7.065-24.121,9.03l-13.118,1.56c-5.078,0-7.618,2.1-7.618,6.27q0,8.625,9.734,8.62l27.506-3.44,31.738-.87q13.113,0.4,26.661.79t23.7,0.39l46.549,3.13h12.695q14.808-1.56,27.93-2.54t38.086-.98l23.7-54.08,4.23-9.01,0.85-3.52c0-3.4-3.38-5.1-10.11-5.1-2.81,0-4.84.47-6.11,1.39s-2.87,3.09-4.84,6.5a89.308,89.308,0,0,1-18.74,23.09q-11.994,10.86-23.568,15.98a96.609,96.609,0,0,1-23.579,7.1,190.036,190.036,0,0,1-30.1,1.97q-19.371,0-28.843-1.56t-14.1-5.51a17.576,17.576,0,0,1-4-5.49,14.72,14.72,0,0,1-1.474-6.3l-1.27-5.5v-11l1.27-99.82h32.161q18.191,0,24.756,3.14t10.791,12.93l3.809,13.32,2.116,12.54q1.269,8.22,8.463,8.23,8.887,0,8.887-5.88v-3.14l-0.846-16.84q0-3.915.634-24.3t1.482-39.18a119.161,119.161,0,0,0,1.692-18.42q0-7.44-9.31-7.44-8.469,0-8.463,7.05,0,12.15-2.751,19.79a29.012,29.012,0,0,1-7.829,12.15,23.4,23.4,0,0,1-11,5.68q-5.931,1.17-22.006,1.17H877.614v-70.25q0-23.01,16.081-25.75a224.66,224.66,0,0,1,23.7-1.17q33.423,0,51.2,3.53,8.034,1.56,12.272,4.7t8.252,10.38a64.488,64.488,0,0,1,6.136,15.87l4.232,18.02q1.681,7.065,10.581,7.06,8.88,0,8.89-5.1l-0.43-3.92q-1.26-4.3-1.69-14.69t-0.42-24.49l0.84-27.03q-8.46,0-38.507-2.29h0Zm218.787,289.5h25.81a416.315,416.315,0,0,0,43.16-2.35,378.54,378.54,0,0,0,38.94-5.88q31.3-6.66,58.39-27.23a143.355,143.355,0,0,0,56.71-114.22q0-64.65-47.61-103.25t-126.74-38.59l-42.32,1.56q-5.07,0-20.94.98t-20.95.98q-4.23,0-14.39-.98t-16.08-.98h-23.27l-12.28-1.56c-5.07,0-8.32.42-9.73,1.25s-2.12,2.65-2.12,5.43q0,7.53,3.18,9.83t15.02,2.29q12.69,0,17.99,1.37a16.491,16.491,0,0,1,8.88,5.87q3.6,4.5,3.6,26.41v184.28q0,14.1-1.27,20.36t-4.65,9q-5.085,4.68-22.01,6.64c-4.23.27-7.62,0.59-10.16,0.98a13.841,13.841,0,0,0-5.5,1.76q-2.955,1.17-2.96,6.26,0,7.83,5.92,7.83l2.54-.39q7.62-.8,21.8-1.18t29.41-.39h12.27Zm0.84-267.58q9.735-9.06,42.74-9.06,52.05,0,85.27,36.41t33.22,93.49q0,61.005-32.84,96.03-32.85,35.04-89.68,35.03-18.525,0-32.43-4.32-8.415-2.76-10.52-6.7t-2.11-16.92V3117.3q0-22.83,6.35-28.73h0Zm382.97,30.18q0-19.605,2.96-26.29,2.97-6.66,12.7-8.63l13.12-2.75,11.42-1.17q7.2,0,7.2-6.27,0-8.235-9.79-8.23-8.085,0-22.98,2.35-4.26,0-21.49.98t-26.59.98q-14.055,0-28.3-.96-14.265-.945-34.69-3.35h-2.12q-6.39,0-6.39,8.03c0,3.31.94,5.41,2.8,6.31s6.83,1.33,14.88,1.33q10.77,0.8,15.08,1.97a20.689,20.689,0,0,1,7.33,3.54q4.74,4.335,5.6,9.25t0.86,23.02v179.45q0,24.8-4.23,31.48t-21.58,8.66l-13.12,1.57q-7.62,1.185-7.62,7.48c0,4.45,2.54,6.69,7.62,6.69l25.39-1.96,34.28-1.18,51.2,1.57,24.13,1.57h2.11q5.925,0,5.93-4.32,0-6.66-2.12-7.85l-3.39-1.56-13.11-1.18q-14.82-1.17-20.95-5.5-6.135-4.305-6.14-12.95V3118.75Zm355.26,230.34q2.745,3.54,10.37,3.53,7.185,0,8.46-7.84l1.69-14.88,2.97-19.99,4.23-19.98,3.38-12.93,0.43-3.14c0-4.44-3.54-6.66-10.58-6.66q-5.5,0-9.31,6.7-11.01,21.27-22.22,32.69t-29.41,20.49q-26.25,13.4-50.78,13.39a96.034,96.034,0,0,1-43.59-10.61q-21.165-10.605-32.58-27.12-24.555-34.965-24.55-94.32,0-60.135,24.12-93.93t66.86-33.8a97.874,97.874,0,0,1,45.5,11.02,111.707,111.707,0,0,1,37.02,31.08,115.022,115.022,0,0,1,11.85,17.91q4.65,8.85,11.43,26.95,2.115,6.3,8.46,6.3,11,0,11-9.02a6.513,6.513,0,0,0-.84-2.74l-2.54-16.46q-2.97-17.235-4.66-36.44-1.695-19.185-1.69-34.48,0-8.22-8.89-8.23-8.04,0-8.04,4.93l-1.69,11.85q-2.115,9.48-8.04,9.48l-6.77-1.96-11-6.66q-31.74-19.2-73.63-19.2-64.335,0-107.49,41.92-43.17,41.94-43.17,104.62,0,64.275,40.84,104.43t106.43,40.16a197.988,197.988,0,0,0,24.97-1.57,252.4,252.4,0,0,0,25.6-4.7,176.958,176.958,0,0,0,27.08-8.82q13.755-5.67,23.07-10.38Q1933.855,3345.575,1936.61,3349.09Zm252.04-126.16,36.79,84.06a128.835,128.835,0,0,1,5.07,12.35,22.935,22.935,0,0,1,1.27,6.77q0,15.54-28.78,15.54-8.04,0-8.04,7.74,0,5.97,7.2,5.97h1.69l27.08-2.61,32.16-1.3q9.315,0,32.17,1.95t32.58,1.96h1.69q7.2,0,7.2-6.27l0.42-4.7c0-1.82-2.26-2.74-6.77-2.74-5.36,0-9.1-.32-11.22-0.99a42.072,42.072,0,0,1-6.34-2.56,32.825,32.825,0,0,1-5.5-3.36,57.494,57.494,0,0,1-4.45-3.74,72.857,72.857,0,0,1-7.19-10.46q-3.81-6.51-8.47-16.38l-101.98-220.59-4.23-11.44q-2.13-5.13-5.08-6.32-2.97-1.185-12.7-1.18-10.575,0-14.17,1.56t-5.29,7.06l-4.74,10.54-98.52,219.46-6.77,13.42a36.809,36.809,0,0,1-7.19,11.85,29.243,29.243,0,0,1-9.52,7.3q-4.86,2.175-17.57,5.33-4.65,1.185-4.65,6.32,0,7.89,7.19,7.89l15.66-1.76,28.78-1.76,25.39,1.76,20.31,1.76h2.12q5.07,0,5.07-7.05,0-4.3-1.27-5.48c-0.84-.79-2.96-1.18-6.34-1.18l-9.74-1.21q-13.11-1.62-17.98-5.67t-4.87-12.95q0-7.68,4.49-19.02l35.4-79.87h89.64Zm-7.23-18.03h-74.31l37.48-83.49Zm372.81,150.46h12.28q16.92,0,50.35-3.52l18.2-41.54,9.73-21.16,0.85-4.31q0-5.085-11.42-5.09-4.665,0-8.47,6.23-11.43,17.13-22.22,27.05a84.2,84.2,0,0,1-24.75,15.75,105.337,105.337,0,0,1-23.06,5.84q-11.655,1.56-31.53,1.55-45.285,0-53.74-7.42a15.544,15.544,0,0,1-5.08-9.17q-0.855-5.28-.85-24.03V3125.61q0-22.65,3.39-30.86,3.375-8.19,13.54-10.55a50.491,50.491,0,0,1,13.33-2.92q6.975-.585,12.91-0.59,7.605,0,7.61-6.66,0-7.83-7.19-7.84a134.417,134.417,0,0,0-17.78,1.18q-6.345,0-38.5,1.96-6.36.39-16.51,0.39l-51.63-1.96-16.5-1.57q-6.78,0-6.77,7.84c0,3.4.99,5.62,2.99,6.66s6.26,1.57,12.81,1.57q17.94,0,25.19,7.45,5.565,4.32,5.56,13.74v195.43q0,18.435-.85,23.35a16.6,16.6,0,0,1-4.65,8.83q-2.55,3.93-8.25,5.49a89.25,89.25,0,0,1-11.43,2.36q-5.715.78-13.33,1.56-6.78,0-6.77,5.88,0,9.015,7.19,9.01l24.97-3.52q4.65,0,20.1-.59t23.91-.59l42.32,1.18,36.39,1.32Z" transform="translate(-153.094 -134)"/>
      <path id="M" class="cls-2" d="M223.675,2998.19l-18.007-1.5-3.5-1.51q-5.51,0-5.5,9.76a13.907,13.907,0,0,0,.5,4.11,11.148,11.148,0,0,0,2.251,3.59q1.748,2.055,16.757,2.05,20,0,27.512,4.76t15.506,20.29v252.49q0,18.03-1.25,26.05a27.194,27.194,0,0,1-5.253,13.02,20.75,20.75,0,0,1-11.505,9.02l-14,3.01q-9.508,2.505-14.506,2.5-8.512,0-8.5,8.47c0,3.46.578,5.58,1.751,6.37,1.164,0.77,3.751,1.17,7.753,1.17h8.5a66.922,66.922,0,0,0,10.5-.8q15.006-1.2,22.259-1.2h14.756l46.02,2h20.508q7.5,0,7.5-7.28,0-7.755-7-8.73l-15.507-2q-16.507-1.995-21.259-3.48c-3.173-1.01-6.338-3.33-9.5-7a23.439,23.439,0,0,1-5.752-11.73q-1.008-6.24-1-30.21V3084.22l104.333,210.09,12.545,25.51,9.027,20.01,5.018,14.01q3,6.495,6.268,8.5t12.786,2q12.04,0,16.054-2.24c2.673-1.5,4.846-4.73,6.518-9.72l4.018-13.46,8.026-19.43,9.528-20.93,106.506-224.87V3293.8q0,19.02-1.5,27.02t-5.752,12.76a24,24,0,0,1-9.755,6.75q-5.51,2.01-20.508,4l-15.006,1.5q-8.512.915-8.5,7.32,0,8.7,8,8.69h27.512q7.5,0,29.262-1.25t28.762-1.25l57.524,2.5h25.511q8,0,8-7.54c0-3.44-.422-5.72-1.25-6.82s-2.923-1.65-6.253-1.65a69.577,69.577,0,0,1-13.5-1.5q-7.5-1.5-17.008-3.52-17.514-4.005-17.507-21.07V3064.86q0-22.065.977-28.09a21.753,21.753,0,0,1,5.409-11.04q7.362-8.025,23.588-11.04h16.217q9.333,0,9.332-7.91,0-11.595-10.441-11.6L688,2996.31q-12.438,1.875-34.8,1.88H610.439q-9.448,0-15.913,4.39T582.6,3016.73q-2.486,4.89-10.942,21.97l-14.912,31.48-98.471,214.63L348.728,3059.32l-18.008-37.58a84.185,84.185,0,0,0-16.507-21.05q-7.011-5.505-18.007-5.51h-4l-35.515,3.01H223.675Z" transform="translate(-153.094 -134)"/>
      <path id="enter" class="cls-2" d="M3425.08,3066.65q-5.49-.45-16.46-0.46-3.135,0-22.92,1.37t-38.59,1.38q-9.81.39-20.18,0.78-10.395.39-21.75,0.39l-35.27-1.17q-23.895,0-25.86-2.75h-3.52q-5.49,0-5.49,8.44,0,4.83,2.94,6.03,2.94,1.215,13.91,1.21,17.64,1.56,21.94,8.24a29.583,29.583,0,0,1,2.94,12.55c0.13,4.72.2,9.55,0.2,14.53v182.47q0,15.315-.79,21a21.779,21.779,0,0,1-3.13,9.22q-4.32,7.065-22.33,9.03l-12.15,1.56c-4.7,0-7.05,2.1-7.05,6.27q0,8.625,9.01,8.62l25.47-3.44,29.38-.87q12.15,0.4,24.69.79t21.94,0.39l43.1,3.13h11.76q13.71-1.56,25.86-2.54t35.26-.98l21.95-54.08,3.91-9.01,0.79-3.52q0-5.1-9.36-5.1c-2.6,0-4.48.47-5.65,1.39s-2.67,3.09-4.49,6.5a88.585,88.585,0,0,1-17.35,23.09q-11.1,10.86-21.82,15.98a84.667,84.667,0,0,1-21.83,7.1,163.213,163.213,0,0,1-27.87,1.97q-17.94,0-26.71-1.56t-13.06-5.51a17.478,17.478,0,0,1-3.7-5.49,15.741,15.741,0,0,1-1.37-6.3l-1.17-5.5v-11l1.17-99.82h29.78q16.845,0,22.92,3.14t10,12.93l3.52,13.32,1.96,12.54q1.17,8.22,7.84,8.23,8.22,0,8.23-5.88v-3.14l-0.79-16.84q0-3.915.59-24.3t1.37-39.18a128.607,128.607,0,0,0,1.57-18.42q0-7.44-8.62-7.44-7.845,0-7.84,7.05,0,12.15-2.54,19.79a29.473,29.473,0,0,1-7.25,12.15,21.2,21.2,0,0,1-10.19,5.68q-5.49,1.17-20.38,1.17h-30.17v-70.25q0-23.01,14.89-25.75a192.808,192.808,0,0,1,21.94-1.17q30.96,0,47.42,3.53,7.44,1.56,11.36,4.7t7.64,10.38a67.65,67.65,0,0,1,5.68,15.87l3.92,18.02q1.56,7.065,9.8,7.06,8.22,0,8.22-5.1l-0.39-3.92q-1.17-4.3-1.57-14.69t-0.39-24.49l0.79-27.03q-7.845,0-35.66-2.29h0Zm107.36,233.47q0,21.945-4.11,28.8t-20.57,8.81l-13.33,2.35q-7.44,0-7.44,7.84c0,4.17,1.7,6.27,5.09,6.27h1.96l15.68-1.18,34.48-1.17,27.82,0.88,22.33,1.47q6.27,0,6.27-7.45c0-2.6-.65-4.31-1.96-5.09l-3.92-1.57H3582.6q-19.995-2.34-25.28-9.62-5.28-7.245-5.29-30.82V3134.37l171.23,196.7a145.114,145.114,0,0,0,12.15,12.93q4.7,4.32,8.62,7.45a30.9,30.9,0,0,0,16.07,4.7q11.355,0,11.36-9.43l-0.39-1.57-2.35-12.58a106.484,106.484,0,0,1-1.57-14.54q-0.39-8.25-.39-22.4V3119.2q0-14.535.78-19.65a19.4,19.4,0,0,1,4.31-9.43,22.359,22.359,0,0,1,10.19-6.68q1.95-.78,10.97-2.36l14.11-2.61c1.82-1.24,2.74-3.23,2.74-5.97q0-7.1-5.1-7.09h-1.95l-16.07,2.18-30.17,1.74-29.39-1.74a110.855,110.855,0,0,0-12.14-1.75c-3.67-.28-6.15-0.43-7.45-0.43q-7.44,0-7.44,7.05,0,5.49,2.93,7.05t13.91,1.57q18.42,0,24.3,7.27t5.88,30.03v159.4l-161.05-187.59q-14.895-17.7-19.59-21.24c-3.13-2.36-7.32-3.54-12.54-3.54l-1.56.52-29.78,2.61c-3.92,0-8.82-.12-14.7-0.39a98.173,98.173,0,0,1-14.69-1.57h-2.74c-3.67,0-5.49,2.75-5.49,8.23q0,6.27,9.4,7.45,6.66,1.56,14.89,7.05a60.529,60.529,0,0,1,11.56,9.6,148.439,148.439,0,0,1,11.56,14.69v186.52Zm271.93-213.61v50.76q0,5.325,8.23,5.33c4.17,0,6.66-2.09,7.44-6.27q2.745-13.71,4.51-19.4a39.636,39.636,0,0,1,5.29-10.77,27.7,27.7,0,0,1,4.7-5.68,49.975,49.975,0,0,1,6.27-4.9q15.675-10.965,47.8-10.97,16.47,0,21.16,4.9,4.71,4.9,5.68,8.44t0.98,17.26v193.07q0,13.74-2.35,19.03t-10.18,8.83q-7.845,3.525-25.08,5.1-5.88.39-5.88,6.67,0,7.455,7.05,7.45l27.43-3.13,33.31-1.18q7.83,0.4,16.85.79,9,0.375,27.42.39a100.85,100.85,0,0,1,14.7.9,69.4,69.4,0,0,1,10.38,2.23h3.14q4.7,0,4.7-7.23c0-3.48-1.12-5.76-3.33-6.83s-6.73-1.61-13.52-1.61q-20.385-1.95-25.27-8.82-4.9-6.84-4.9-31.15V3114.39q0-18.42,5.68-24.1t24.88-5.68q31.74,0,46.43,11.13t19.4,38.75q0.39,5.76,8.62,5.76,7.83,0,7.84-8.23l-1.96-19.59-0.79-29-0.39-17.24h-86.59l-51.33,2.75-53.45-2.75h-26.32q-15.72,0-58.55,1.96v18.36Zm463.93-19.86q-5.49-.45-16.46-0.46-3.135,0-22.92,1.37t-38.6,1.38q-9.8.39-20.18,0.78t-21.74.39l-35.27-1.17q-23.9,0-25.86-2.75h-3.52c-3.67,0-5.49,2.82-5.49,8.44q0,4.83,2.94,6.03,2.94,1.215,13.91,1.21,17.625,1.56,21.94,8.24a29.583,29.583,0,0,1,2.94,12.55c0.13,4.72.2,9.55,0.2,14.53v182.47q0,15.315-.79,21a21.917,21.917,0,0,1-3.13,9.22q-4.32,7.065-22.34,9.03l-12.14,1.56c-4.71,0-7.06,2.1-7.06,6.27q0,8.625,9.02,8.62l25.46-3.44,29.39-.87q12.15,0.4,24.69.79t21.94,0.39l43.1,3.13h11.76q13.71-1.56,25.86-2.54,12.135-.99,35.26-0.98l21.94-54.08,3.92-9.01,0.79-3.52c0-3.4-3.13-5.1-9.36-5.1-2.6,0-4.49.47-5.66,1.39s-2.66,3.09-4.48,6.5a88.585,88.585,0,0,1-17.35,23.09q-11.115,10.86-21.82,15.98a84.735,84.735,0,0,1-21.84,7.1,163.051,163.051,0,0,1-27.87,1.97q-17.925,0-26.7-1.56t-13.06-5.51a17.478,17.478,0,0,1-3.7-5.49,15.573,15.573,0,0,1-1.37-6.3l-1.18-5.5v-11l1.18-99.82h29.78q16.845,0,22.92,3.14t9.99,12.93l3.53,13.32,1.96,12.54q1.17,8.22,7.84,8.23,8.22,0,8.22-5.88v-3.14l-0.78-16.84q0-3.915.59-24.3t1.37-39.18a128.607,128.607,0,0,0,1.57-18.42q0-7.44-8.62-7.44-7.845,0-7.84,7.05,0,12.15-2.55,19.79a29.262,29.262,0,0,1-7.25,12.15,21.125,21.125,0,0,1-10.18,5.68q-5.49,1.17-20.38,1.17h-30.17v-70.25q0-23.01,14.89-25.75a192.808,192.808,0,0,1,21.94-1.17q30.945,0,47.41,3.53,7.44,1.56,11.37,4.7,3.915,3.135,7.64,10.38a67.65,67.65,0,0,1,5.68,15.87l3.92,18.02q1.56,7.065,9.79,7.06t8.23-5.1l-0.39-3.92q-1.17-4.3-1.57-14.69t-0.39-24.49l0.78-27.03q-7.83,0-35.65-2.29h0Zm180.24,150.4,62.69,98.4q10.965,16.605,17.05,23.91,6.06,7.3,12.34,9.68a61.325,61.325,0,0,0,18.22,5.14q9.6,1.185,29.19,1.18,23.52,0,30.56-3.13,2.745-1.56,2.75-5.88,0-7.44-5.88-7.83l-7.05-1.19-8.62-3.16a37.116,37.116,0,0,1-9.41-5.54q-4.3-2.775-11.95-11.67a170.471,170.471,0,0,1-13.12-17.2l-60.74-90.55a189.854,189.854,0,0,0,23.32-7.81,80.883,80.883,0,0,0,15.87-9.38q28.59-19.545,28.6-52.76,0-32.415-26.65-52.75-26.64-20.31-69.35-20.32-14.505,0-42.32,2.12l-34.48,1.41q-21.945,0-46.23-2.35l-13.72-1.18q-7.845,0-7.84,7.24c0,4.55.65,7.1,1.96,7.63l4.31,0.81,10.58,1.96,14.11,1.17a13.848,13.848,0,0,1,8.82,5.49,17.211,17.211,0,0,1,3.72,10.97v198.66a179.374,179.374,0,0,1-.79,20.18,22.132,22.132,0,0,1-3.33,9.79q-2.55,3.735-8.22,6.07a35.23,35.23,0,0,1-13.52,2.36q-4.32.39-9.41,1.17c-3.39.53-5.62,1.24-6.66,2.16s-1.57,2.81-1.57,5.68q0,7.83,6.67,7.83h1.95a518.065,518.065,0,0,1,63.87-4.31,332.009,332.009,0,0,1,35.27,1.73l27.82,2.58h1.57q7.05,0,7.05-7.05,0-5.475-3.17-7.05-3.15-1.56-15.01-1.57-19.755-1.575-24.49-7.47a14.618,14.618,0,0,1-4.74-10.61V3217.05h19.98Zm-19.98-113.88a26.321,26.321,0,0,1,5.12-12.63q6.675-8.67,26.36-8.67,24.795,0,39.57,17.04,14.76,17.04,14.76,45.65,0,54.465-60.23,54.46h-25.58v-95.85Z" transform="translate(-153.094 -134)"/>
      <path id="C-2" data-name="C" class="cls-2" d="M3153.53,3336.34q3.585,4.5,13.49,4.5,9.345,0,11-10.01l2.2-19,3.85-25.51,5.51-25.52,4.4-16.5,0.55-4q0-8.505-13.76-8.51-7.155,0-12.1,8.55-14.325,27.15-28.89,41.74-14.58,14.58-38.24,26.15-34.125,17.1-66.03,17.1a126.81,126.81,0,0,1-56.67-13.54q-27.525-13.545-42.37-34.63-31.92-44.64-31.91-120.41,0-76.755,31.36-119.91t86.93-43.15a129.131,129.131,0,0,1,59.15,14.07,144.53,144.53,0,0,1,48.15,39.68,147.749,147.749,0,0,1,15.41,22.85q6.045,11.31,14.85,34.42,2.745,8.04,11.01,8.03,14.295,0,14.3-11.5c-0.37-2-.74-3.17-1.1-3.5l-3.3-21.01q-3.855-22.005-6.05-46.52t-2.2-44.02q0-10.5-11.56-10.51c-6.97,0-10.45,2.11-10.45,6.3l-2.2,15.12q-2.76,12.105-10.46,12.1l-8.8-2.5-14.31-8.51q-41.265-24.495-95.74-24.51-83.64,0-139.76,53.53t-56.12,133.55q0,82.05,53.1,133.31,53.085,51.27,138.38,51.27a261.625,261.625,0,0,0,32.47-2,335.6,335.6,0,0,0,33.28-6,233.474,233.474,0,0,0,35.22-11.26q17.88-7.245,29.99-13.25Q3149.95,3331.835,3153.53,3336.34Z" transform="translate(-153.094 -134)"/>
      <path id="Integrity" class="cls-3" d="M3756.59,3911.09c-8.8,25.51-11.55,28.51-24.76,29.76l-8.53.75c-1.92,1.5-1.92,5,.28,6.25,11-.5,20.36-0.75,31.63-0.75,11.83,0,21.19.25,34.67,0.75,1.93-1,2.75-4.5,1.1-6.25l-8.53-.75c-14.03-1.25-13.2-6.5-5.23-29.76l32.19-93.04c8.53-24.76,9.63-27.26,25.59-29.52l7.43-1c2.47-1.25,1.92-5.25,0-6.25-13.21.5-21.74,0.75-33.02,0.75-11.55,0-20.91-.25-31.91-0.75-3.03,1-3.3,4.25-1.65,6.25l6.6,1c15.13,2.26,14.58,6.01,6.33,29.52Zm145.54-55.78c2.47-5.75-.55-10.25-7.16-10.25-13.75,0-30.53,10.25-40.99,23.26a3.214,3.214,0,0,0,3.3,3.75c9.08-7.25,18.71-12.5,25.04-12.5,2.2,0,2.2,2.5.82,5.75-1.37,3.5-30.53,75.53-31.91,78.78-2.48,5.75,4.95,6.5,7.98,6.5,2.47,0,3.58-.75,4.95-3,16.23-27.51,27.51-47.02,42.09-63.52,15.14-17.26,31.37-29.77,37.97-29.77,4.13,0,4.4,3,4.4,6.01,0,5-3.57,13.75-5.78,18.25-6.32,12.51-16.5,37.02-22.28,49.27-5.78,12.51-6.6,14.26-6.6,16.51,0,3,4.12,6.25,6.6,6.25,15.13,0,36.87-12,47.32-28.01,0-2-.55-4-4.4-3.5-7.98,8.75-21.19,17.01-25.86,17.01-1.93,0-1.65-2.25-.55-4.75,0.82-2,20.63-42.77,25.58-55.28,2.2-5.75,4.4-13.5,4.4-17.51,0-8.25-4.67-13.5-15.4-13.5-20.64,0-47.87,27.51-67.41,54.52l-0.82-.5Zm191.48,3c3.57-1.75,5.22-6.75,3.3-9.25h-29.99l7.98-24.51c-2.2-2.5-7.71-3-10.46-1.5l-15.4,24.76-22.01,3.5c-2.75,1-3.58,4.5-3.03,7h21.46l-26.69,71.29c-2.75,7.5-3.85,11-3.85,14.25,0,3,3.58,6.75,7.43,6.75,11.55,0,37.42-15.25,52.82-36.01,0.55-3-1.1-4.5-3.85-4.5-9.08,9.5-27.24,22.51-31.36,22.51-2.2,0-3.58-1.5-1.93-6.26l25.59-68.03h29.99Zm98.21-13.25c-7.98,0-18.71,2-33.01,12-29.99,21.01-41,51.53-41,67.28,0,12.26,5.78,26.26,22.29,26.26,11.55,0,27.24-4,44.02-22.76a3.437,3.437,0,0,0-3.58-4.25c-12.1,9.51-18.98,14.51-28.89,14.51-7.42,0-13.2-5.75-13.2-14.26,0-10,1.92-18,3.85-22.26,39.62-10,66.85-22.51,66.85-41.51C4209.15,3853.56,4202.83,3845.06,4191.82,3845.06Zm-5.5,7.75c4.95,0,6.33,3.25,6.33,5.75,0,2.26-2.21,9.76-10.73,17.01-10.18,8.76-18.71,13.51-36.87,18.51a98.555,98.555,0,0,1,20.36-29.26C4175.31,3855.06,4182.47,3852.81,4186.32,3852.81Zm121.05-7.75c-14.58,0-27.51,4.75-40.72,15.01-13.76,11-22.28,28.01-22.28,42.01,0,16.76,14.85,21.26,20.08,22.51-3.85,4.5-12.38,14.76-12.38,19.26,0,3.5,1.65,7.25,8.8,11.51-14.85,4.25-47.04,16.25-47.04,35.26,0,16.76,23.38,23.76,43.47,23.76,44.84,0,67.12-15.76,67.12-29.76,0-8-4.67-15.76-20.63-24.26-9.9-5.5-20.63-11.01-26.96-15.01-7.15-4.25-9.08-8.75-9.08-11.75,0-3.75,3.03-7.26,6.05-8.76,6.06-1.5,16.51-4.75,19.54-6.5,18.98-10.75,34.94-29.76,34.94-50.02,0-3.5-1.38-7.5-1.93-9.51-0.28-.75,1.1-1.5,2.48-1.5a53.447,53.447,0,0,1,10.18,1.5,51.5,51.5,0,0,0,9.07,1.26c2.76,0,6.06-2.01,6.06-7.76,0-3.75-1.93-6.25-5.78-6.25a71.05,71.05,0,0,0-12.38,2,61.756,61.756,0,0,1-13.21,1.5c-1.1,0-3.57-1.25-6.6-2.25S4310.12,3845.06,4307.37,3845.06Zm-37.42,161.07c-18.71,0-37.14-7.51-37.14-19.26,0-5.75,3.03-11.26,10.46-16.26,7.97-5.25,18.7-10,25.58-9.25,4.4,0.5,14.03,5.5,25.59,12.5,8.8,5.51,11.83,11.01,11.83,15.26C4306.27,4001.13,4282.61,4006.13,4269.95,4006.13Zm34.12-153.82a8.3,8.3,0,0,1,8.25,8.51c0,8-9.63,30.26-25.04,46.77-7.7,8.25-14.3,9.75-18.15,9.75-4.41,0-8.26-3.5-8.26-8.75,0-12.76,14.03-34.77,24.76-46.02C4294.16,3854.06,4299.39,3852.31,4304.07,3852.31Zm108.94-7.25c-13.21,0-23.66,10.5-32.47,24.01-0.27,3,1.66,4.5,4.41,4,4.95-6,12.38-13,19.53-13,2.48,0,3.03,2.5,2.2,5.25-7.43,24.51-24.76,68.78-28.34,78.78-1.92,5.5,6.06,6.5,9.08,6.5a4.948,4.948,0,0,0,4.68-3c14.58-28.76,29.99-59.27,46.77-78.78,4.13-5,7.15-7.5,9.63-7.5,2.75,0,4.4,3.25,5.78,9.75,1.1,5.25,5.5,5,8.8,1.25,3.3-4,5.78-11.25,5.78-15.01s-1.38-12.25-11.01-12.25c-6.88,0-13.75,5.5-20.08,13-7.15,8.26-20.64,28.27-28.89,42.27h-1.37l11.83-31.51C4421.81,3862.07,4426.76,3845.06,4413.01,3845.06Zm83.63,96.54a5.526,5.526,0,0,0,1.1,6.75,6.3,6.3,0,0,0,4.4,2.25c18.99,0,47.32-22.51,51.45-29.76,0-2.25-1.38-4-4.13-4.25-9.35,9.75-23.93,18.51-28.61,18.51-2.2,0-1.93-3-.83-5.5l32.74-71.04c3.31-7.25,3.31-9.5,1.65-11-1.1-1-2.47-2.5-4.4-2.5-9.08,0-30.26,9.25-45.39,25.01-0.55,2,1.1,4,3.57,4.25,13.76-10.25,20.91-13.25,22.84-13.25s1.93,2,.55,4.75Zm58.32-148.06c-10.72,0-14.58,10.25-14.58,15.75,0,4.26,2.48,9.26,9.63,9.26,8.26,0,14.31-7.76,14.31-15.51C4564.32,3797.54,4561.29,3793.54,4554.96,3793.54Zm124.91,64.77c3.57-1.75,5.22-6.75,3.3-9.25h-29.99l7.98-24.51c-2.2-2.5-7.7-3-10.46-1.5l-15.4,24.76-22.01,3.5c-2.75,1-3.58,4.5-3.03,7h21.46l-26.68,71.29c-2.76,7.5-3.86,11-3.86,14.25,0,3,3.58,6.75,7.43,6.75,11.56,0,37.42-15.25,52.82-36.01,0.55-3-1.1-4.5-3.85-4.5-9.08,9.5-27.23,22.51-31.36,22.51-2.2,0-3.58-1.5-1.93-6.26l25.59-68.03h29.99Zm55.29-13.25c-13.48,0-25.58,15.51-31.36,32.26,0.55,2.25,2.2,4,5.23,3.25,5.78-10.5,10.45-19,15.95-19,5.23,0,9.91,9.75,10.46,37.51,0.27,21.26-1.65,44.27-5.5,57.03-5.23,16.5-17.34,32.26-24.21,37.51-6.61,5-11.56,7.01-15.13,7.01-4.41,0-6.88-3.26-7.71-4.51a9.605,9.605,0,0,0-7.43-4,10.7,10.7,0,0,0-11,10.76c0,6.25,5.5,11.5,14.31,11.5s22.55-4,42.91-25.26c22.01-22.76,31.92-39.27,45.4-60.03,24.76-37.76,32.19-70.02,31.91-76.28,0-2.75-.82-4-2.47-5a19.32,19.32,0,0,0-7.71-2.25c-1.92,0-6.05.5-6.6,7.75-0.28,6.51-4.4,31.77-10.18,46.27-6.05,15.26-14.03,30.77-23.11,43.02h-1.1a269.879,269.879,0,0,0,4.13-55.02C4751.4,3870.07,4749.2,3845.06,4735.16,3845.06Z" transform="translate(-153.094 -134)"/>
      <path id="Competence" class="cls-3" d="M2236.19,3778.03c-40.63,0-78.16,11.51-104.21,30.51-25.43,18.51-44.35,46.27-44.35,75.29,0,52.52,46.52,67.27,86.84,67.27,10.86,0,21.09-1.75,30.08-3,9.31-1.25,17.68-2.75,24.51-2.75,10.54-15.25,17.36-28.51,20.15-35.26-0.93-2.25-4.34-2.75-7.44-1.75-14.89,19.75-34.42,35.01-66.68,35.01-39.39,0-60.16-19.26-60.16-54.77,0-33.02,21.08-62.28,36.59-74.78,28.53-22.51,57.38-28.02,79.4-28.02,31.94,0,39.69,11.76,33.8,33.52,0.93,2,7.13,2.25,8.37.25,2.8-9.26,9-23.76,13.96-33.52A167.536,167.536,0,0,0,2236.19,3778.03Zm111.33,67.03c-12.71,0-26.67,3.75-42.8,16.26-21.09,16.25-32.56,40.51-33.8,56.02-1.86,21.51,11.16,33.26,31.01,33.26,8.38,0,25.12-1.25,44.35-17.25,22.95-19.01,31.95-43.02,32.88-56.78C2380.4,3858.31,2369.54,3845.06,2347.52,3845.06Zm-2.17,7.5c10.86,0,12.72,8.76,12.41,16.51-0.62,13.26-15.2,46.27-28.85,61.03-9.92,10.75-17.67,13-24.5,13-8.99,0-13.33-7.25-12.71-16.01,0.93-13.25,13.02-43.01,31.01-62.52C2331.71,3854.81,2339.15,3852.56,2345.35,3852.56Zm167.47-7.5c-23.57,0-52.72,26.51-75.05,56.02l-0.93-.5,21.4-45.27c2.79-5.75-.31-10.25-7.45-10.25-23.57,0-40,11.25-47.76,23.26-0.31,2,1.24,3.75,4.34,3.75,6.21-6.25,17.06-13.76,27.3-13.76,3.41,0,3.72,2.76,2.17,7.01-1.24,3.75-34.43,76.78-35.36,78.78-2.79,5.75,5.58,6.5,9,6.5,2.79,0,4.03-.75,5.58-3,17.99-27.51,30.39-47.02,46.52-63.27,17.06-17.01,34.42-30.02,43.11-30.02,11.16,0-1.24,21.51-2.48,24.26l-30.71,65.53c-2.79,5.75,5.58,6.5,9,6.5,2.79,0,4.03-1,5.58-3,18.92-27.51,32.87-47.27,48.69-63.27,16.75-17.26,31.63-30.02,40.63-30.02,4.65,0,4.96,3,4.96,6.01,0,5-4.34,13.75-6.51,18.25-6.21,12.76-18.61,37.02-25.12,49.27-6.52,12.51-7.45,14.26-7.45,16.51,0,3,4.65,6.25,7.45,6.25,17.05,0,41.55-12,53.34-28.01,0-2-.62-4-4.96-3.5-9,8.75-23.88,17.01-29.16,17.01-2.17,0-1.86-2.25-.62-4.75,0.93-2,23.26-42.77,28.85-55.28,2.79-5.75,4.96-13.5,4.96-17.51,0-8.25-5.58-13.5-17.37-13.5-20.47,0-44.04,17.76-73.81,56.02l-0.93-.5,11.78-23.01C2528.33,3864.82,2535.15,3845.06,2512.82,3845.06Zm182.97-11.26c-1.24-3.75-13.64-6.25-17.68-3.5l-9.3,20.26c-15.2,3.25-27.6,7.5-38.46,13.76a3.456,3.456,0,0,0,3.11,4.75c13.02-5.25,20.15-7.75,31.32-10.26l-57.69,130.56c-4.65,10.26-5.89,16.01-23.26,18.51l-6.82,1a3.137,3.137,0,0,0,0,5.5c20.78-.5,44.04-1.5,67.61-1.5,2.79-1,2.79-3.75,1.24-5.5l-12.71-1.5c-10.24-1.25-10.86-3.5-2.49-22.76l12.72-29.51a6.393,6.393,0,0,1,4.96-4.51c4.34,1,6.82,1.5,9.62,1.5,1.24,0,24.81-1,44.35-14.25,23.57-16.01,40.93-36.27,40.93-59.28,0-23.76-27.91-28.51-42.18-28.51-5.89,0-9.3.5-11.78,0.5Zm-8.99,22.76a65.825,65.825,0,0,1,8.06-.5c13.34,0,24.5,6.26,24.5,18.76,0,11.01-3.41,28.51-18.3,47.02-13.33,16.76-30.7,20.26-34.73,20.26a15.734,15.734,0,0,1-11.48-5.75c-1.24-1.5-1.55-4-.31-6.75Zm157.54-11.5c-8.99,0-21.08,2-37.21,12-33.81,21.01-46.21,51.53-46.21,67.28,0,12.26,6.51,26.26,25.12,26.26,13.02,0,30.7-4,49.62-22.76,0.62-2.25-1.24-4.25-4.03-4.25-13.65,9.51-21.4,14.51-32.57,14.51-8.37,0-14.88-5.75-14.88-14.26,0-10,2.17-18,4.34-22.26,44.66-10,75.36-22.51,75.36-41.51C2863.88,3853.56,2856.75,3845.06,2844.34,3845.06Zm-6.2,7.75c5.58,0,7.13,3.25,7.13,5.75,0,2.26-2.48,9.76-12.09,17.01-11.48,8.76-21.09,13.51-41.56,18.51a99.1,99.1,0,0,1,22.95-29.26C2825.74,3855.06,2833.8,3852.81,2838.14,3852.81Zm121.88,5.5c4.03-1.75,5.89-6.75,3.72-9.25h-33.8l8.99-24.51c-2.48-2.5-8.68-3-11.78-1.5l-17.37,24.76-24.81,3.5c-3.1,1-4.03,4.5-3.41,7h24.19l-30.09,71.29c-3.1,7.5-4.34,11-4.34,14.25,0,3,4.03,6.75,8.38,6.75,13.02,0,42.17-15.25,59.54-36.01,0.62-3-1.24-4.5-4.34-4.5-10.23,9.5-30.7,22.51-35.36,22.51-2.48,0-4.03-1.5-2.17-6.26l28.85-68.03h33.8Zm79.7-13.25c-8.99,0-21.09,2-37.21,12-33.81,21.01-46.21,51.53-46.21,67.28,0,12.26,6.51,26.26,25.12,26.26,13.02,0,30.7-4,49.62-22.76,0.62-2.25-1.24-4.25-4.03-4.25-13.65,9.51-21.4,14.51-32.57,14.51-8.37,0-14.88-5.75-14.88-14.26,0-10,2.17-18,4.34-22.26,44.66-10,75.36-22.51,75.36-41.51C3059.26,3853.56,3052.13,3845.06,3039.72,3845.06Zm-6.2,7.75c5.58,0,7.13,3.25,7.13,5.75,0,2.26-2.48,9.76-12.09,17.01-11.48,8.76-21.09,13.51-41.56,18.51a98.931,98.931,0,0,1,22.95-29.26C3021.11,3855.06,3029.18,3852.81,3033.52,3852.81Zm92.42,2.5c2.79-5.75-.62-10.25-8.07-10.25-15.5,0-34.42,10.25-46.21,23.26-0.31,2,1.24,3.75,3.72,3.75,10.24-7.25,21.09-12.5,28.23-12.5,2.48,0,2.48,2.5.93,5.75-1.55,3.5-34.43,75.53-35.98,78.78-2.79,5.75,5.58,6.5,9,6.5,2.79,0,4.03-.75,5.58-3,18.3-27.51,31.01-47.02,47.45-63.52,17.06-17.26,35.35-29.77,42.8-29.77,4.65,0,4.96,3,4.96,6.01,0,5-4.03,13.75-6.51,18.25-7.14,12.51-18.61,37.02-25.12,49.27-6.52,12.51-7.45,14.26-7.45,16.51,0,3,4.65,6.25,7.45,6.25,17.05,0,41.55-12,53.34-28.01,0-2-.62-4-4.96-3.5-9,8.75-23.88,17.01-29.16,17.01-2.17,0-1.86-2.25-.62-4.75,0.93-2,23.26-42.77,28.85-55.28,2.48-5.75,4.96-13.5,4.96-17.51,0-8.25-5.27-13.5-17.37-13.5-23.26,0-53.96,27.51-75.98,54.52l-0.93-.5Zm173.05-10.25c-13.96,0-27.29,5-40.32,14.51-27.29,19.75-39.39,48.27-39.39,64.52,0,19.26,11.17,26.51,23.26,26.51,19.54,0,39.08-10.75,51.17-23.51,0.94-2.5-.93-4.5-4.03-4.25-11.78,8.76-23.26,15.26-33.49,15.26-7.44,0-13.96-3.75-13.34-16.26,0.93-19.26,10.55-39.51,20.78-51.77,9.62-11.51,19.23-16.76,26.05-16.76,10.24,0,9.93,7.51,10.86,13.76,0.62,3,3.1,4.5,6.2,4.5s15.2-1.75,15.2-11.75C3321.94,3852.06,3314.49,3845.06,3298.99,3845.06Zm108.23,0c-8.99,0-21.09,2-37.21,12-33.81,21.01-46.21,51.53-46.21,67.28,0,12.26,6.51,26.26,25.12,26.26,13.02,0,30.7-4,49.62-22.76,0.62-2.25-1.24-4.25-4.03-4.25-13.65,9.51-21.4,14.51-32.57,14.51-8.37,0-14.88-5.75-14.88-14.26,0-10,2.17-18,4.34-22.26,44.66-10,75.36-22.51,75.36-41.51C3426.76,3853.56,3419.63,3845.06,3407.22,3845.06Zm-6.2,7.75c5.58,0,7.13,3.25,7.13,5.75,0,2.26-2.48,9.76-12.09,17.01-11.48,8.76-21.09,13.51-41.56,18.51a98.931,98.931,0,0,1,22.95-29.26C3388.61,3855.06,3396.68,3852.81,3401.02,3852.81Z" transform="translate(-153.094 -134)"/>
      <path id="Compassion" class="cls-3" d="M538.188,3778.03c-40.627,0-78.154,11.51-104.2,30.51-25.431,18.51-44.349,46.27-44.349,75.29,0,52.52,46.52,67.27,86.838,67.27,10.854,0,21.089-1.75,30.083-3,9.3-1.25,17.677-2.75,24.5-2.75,10.545-15.25,17.368-28.51,20.159-35.26-0.93-2.25-4.342-2.75-7.443-1.75-14.887,19.75-34.425,35.01-66.679,35.01-39.387,0-60.166-19.26-60.166-54.77,0-33.02,21.089-62.28,36.6-74.78,28.532-22.51,57.374-28.02,79.394-28.02,31.944,0,39.7,11.76,33.8,33.52,0.93,2,7.133,2.25,8.373.25,2.792-9.26,8.994-23.76,13.956-33.52A167.565,167.565,0,0,0,538.188,3778.03Zm111.335,67.03c-12.716,0-26.672,3.75-42.8,16.26-21.089,16.25-32.564,40.51-33.805,56.02-1.861,21.51,11.165,33.26,31.014,33.26,8.373,0,25.121-1.25,44.349-17.25,22.95-19.01,31.944-43.02,32.874-56.78C682.4,3858.31,671.542,3845.06,649.523,3845.06Zm-2.171,7.5c10.854,0,12.715,8.76,12.4,16.51-0.62,13.26-15.2,46.27-28.843,61.03-9.924,10.75-17.677,13-24.5,13-8.994,0-13.336-7.25-12.716-16.01,0.931-13.25,13.026-43.01,31.014-62.52C633.706,3854.81,641.149,3852.56,647.352,3852.56Zm167.468-7.5c-23.571,0-52.723,26.51-75.053,56.02l-0.93-.5,21.4-45.27c2.791-5.75-.31-10.25-7.443-10.25-23.571,0-40.008,11.25-47.761,23.26-0.31,2,1.24,3.75,4.342,3.75,6.2-6.25,17.057-13.76,27.292-13.76,3.411,0,3.721,2.76,2.171,7.01-1.241,3.75-34.425,76.78-35.356,78.78-2.791,5.75,5.583,6.5,8.994,6.5,2.791,0,4.032-.75,5.583-3,17.987-27.51,30.393-47.02,46.52-63.27,17.057-17.01,34.425-30.02,43.109-30.02,11.164,0-1.241,21.51-2.482,24.26l-30.7,65.53c-2.791,5.75,5.583,6.5,8.994,6.5,2.791,0,4.032-1,5.582-3,18.919-27.51,32.875-47.27,48.692-63.27,16.747-17.26,31.633-30.02,40.627-30.02,4.652,0,4.962,3,4.962,6.01,0,5-4.341,13.75-6.512,18.25-6.2,12.76-18.608,37.02-25.121,49.27-6.513,12.51-7.444,14.26-7.444,16.51,0,3,4.653,6.25,7.444,6.25,17.057,0,41.558-12,53.343-28.01,0-2-.62-4-4.962-3.5-8.994,8.75-23.881,17.01-29.153,17.01-2.171,0-1.861-2.25-.62-4.75,0.93-2,23.26-42.77,28.842-55.28,2.792-5.75,4.962-13.5,4.962-17.51,0-8.25-5.582-13.5-17.367-13.5-20.469,0-44.039,17.76-73.812,56.02l-0.931-.5,11.786-23.01C830.326,3864.82,837.149,3845.06,814.82,3845.06Zm182.972-11.26c-1.24-3.75-13.646-6.25-17.677-3.5l-9.3,20.26c-15.2,3.25-27.6,7.5-38.457,13.76a3.455,3.455,0,0,0,3.1,4.75c13.026-5.25,20.159-7.75,31.324-10.26l-57.685,130.56c-4.652,10.26-5.893,16.01-23.26,18.51l-6.823,1a3.136,3.136,0,0,0,0,5.5c20.779-.5,44.039-1.5,67.609-1.5,2.791-1,2.791-3.75,1.241-5.5l-12.716-1.5c-10.234-1.25-10.855-3.5-2.481-22.76l12.716-29.51a6.394,6.394,0,0,1,4.962-4.51c4.342,1,6.823,1.5,9.614,1.5,1.24,0,24.811-1,44.354-14.25,23.57-16.01,40.93-36.27,40.93-59.28,0-23.76-27.91-28.51-42.18-28.51-5.888,0-9.3.5-11.781,0.5Zm-8.994,22.76a65.884,65.884,0,0,1,8.064-.5c13.338,0,24.5,6.26,24.5,18.76,0,11.01-3.41,28.51-18.3,47.02-13.331,16.76-30.7,20.26-34.73,20.26a15.7,15.7,0,0,1-11.476-5.75c-1.24-1.5-1.55-4-.31-6.75Zm176.462-1.25a16.52,16.52,0,0,0-6.2-5.25,18.3,18.3,0,0,0-7.44-1.5c-8.07,0-15.82,1.75-27.92,7.25-12.71,5.76-26.05,15.76-40.93,32.27-20.47,22.76-27.3,42.77-27.3,48.52,0,7,4.97,14,13.65,14,14.58,0,46.21-17.25,68.23-39.26l0.93,0.25-10.23,22.51c-2.48,5.75-3.11,8-3.11,9.75,0,2,1.87,6.75,9,6.75,17.06,0,39.08-14,52.1-28.01,0-2-2.17-3.25-4.34-3.25-17.68,12.51-26.67,16.76-31.94,16.76-2.49,0-4.04-1.5-2.18-5.75,9.93-22.76,36.91-78.04,41.56-87.29-1.86-3.25-9.92-5.75-15.19-3.75Zm-23.26,2.75c8.07,0,13.34,4.26,15.51,9.01-4.96,14.75-17.99,36.26-41.56,54.02-17.68,13.01-26.98,16.26-30.08,16.26a4.365,4.365,0,0,1-4.65-4.75c0-17.76,18.91-50.53,38.76-64.78C1129.6,3860.82,1134.56,3858.06,1142,3858.06Zm114.75-13c-4.04,0-13.96,2-22.95,8.25-13.34,9.26-18.61,16.51-18.61,26.26,0,4.26,2.79,12.76,10.85,23.26,7.76,10.01,11.48,17.76,11.48,22.01,0,8.01-7.45,14.26-14.89,14.26-8.06,0-17.37-6.25-21.4-10.01a7.328,7.328,0,0,0-8.37,0c-3.41,3.01-4.65,5.76-4.65,8.26,0,5.75,7.13,13.25,18.91,13.25s23.26-3.25,31.33-9c11.47-8,15.81-17.26,16.12-24.01,0.62-11-4.03-17.26-11.78-27.76-8.99-12.26-10.55-17.51-10.55-22.76,0-3.75,3.73-10.01,12.72-10.01,9.61,0,13.65,3.76,18.92,8.01a5.674,5.674,0,0,0,5.89,2c2.48-1,5.58-3.75,5.58-7.75C1275.35,3853.06,1268.22,3845.06,1256.75,3845.06Zm81.25,0c-4.03,0-13.96,2-22.95,8.25-13.34,9.26-18.61,16.51-18.61,26.26,0,4.26,2.79,12.76,10.85,23.26,7.76,10.01,11.48,17.76,11.48,22.01,0,8.01-7.44,14.26-14.89,14.26-8.06,0-17.36-6.25-21.4-10.01a7.328,7.328,0,0,0-8.37,0c-3.41,3.01-4.65,5.76-4.65,8.26,0,5.75,7.13,13.25,18.92,13.25s23.26-3.25,31.32-9c11.47-8,15.82-17.26,16.13-24.01,0.62-11-4.04-17.26-11.79-27.76-8.99-12.26-10.54-17.51-10.54-22.76,0-3.75,3.72-10.01,12.71-10.01,9.62,0,13.65,3.76,18.92,8.01a5.674,5.674,0,0,0,5.89,2c2.48-1,5.59-3.75,5.59-7.75C1356.61,3853.06,1349.47,3845.06,1338,3845.06Zm27.6,96.54c-1.55,2.75-.62,5,1.24,6.75a7.446,7.446,0,0,0,4.96,2.25c21.4,0,53.34-22.51,57.99-29.76,0-2.25-1.55-4-4.65-4.25-10.54,9.75-26.98,18.51-32.25,18.51-2.48,0-2.17-3-.93-5.5l36.9-71.04c3.73-7.25,3.73-9.5,1.86-11-1.24-1-2.79-2.5-4.96-2.5-10.23,0-34.11,9.25-51.17,25.01-0.62,2,1.24,4,4.03,4.25,15.51-10.25,23.57-13.25,25.74-13.25s2.17,2,.62,4.75Zm65.74-148.06c-12.09,0-16.43,10.25-16.43,15.75,0,4.26,2.79,9.26,10.85,9.26,9.31,0,16.13-7.76,16.13-15.51C1441.89,3797.54,1438.48,3793.54,1431.34,3793.54Zm95.53,51.52c-12.72,0-26.68,3.75-42.8,16.26-21.09,16.25-32.57,40.51-33.81,56.02-1.86,21.51,11.17,33.26,31.02,33.26,8.37,0,25.12-1.25,44.34-17.25,22.95-19.01,31.95-43.02,32.88-56.78C1559.74,3858.31,1548.88,3845.06,1526.87,3845.06Zm-2.18,7.5c10.86,0,12.72,8.76,12.41,16.51-0.62,13.26-15.2,46.27-28.84,61.03-9.93,10.75-17.68,13-24.5,13-9,0-13.34-7.25-12.72-16.01,0.93-13.25,13.03-43.01,31.01-62.52C1511.05,3854.81,1518.49,3852.56,1524.69,3852.56Zm112.89,2.75c2.79-5.75-.62-10.25-8.06-10.25-15.51,0-34.43,10.25-46.22,23.26-0.31,2,1.25,3.75,3.73,3.75,10.23-7.25,21.09-12.5,28.22-12.5,2.48,0,2.48,2.5.93,5.75-1.55,3.5-34.43,75.53-35.98,78.78-2.79,5.75,5.59,6.5,9,6.5,2.79,0,4.03-.75,5.58-3,18.3-27.51,31.01-47.02,47.45-63.52,17.06-17.26,35.36-29.77,42.8-29.77,4.65,0,4.96,3,4.96,6.01,0,5-4.03,13.75-6.51,18.25-7.13,12.51-18.61,37.02-25.12,49.27-6.52,12.51-7.45,14.26-7.45,16.51,0,3,4.66,6.25,7.45,6.25,17.05,0,41.56-12,53.34-28.01,0-2-.62-4-4.96-3.5-9,8.75-23.88,17.01-29.15,17.01-2.18,0-1.86-2.25-.62-4.75,0.93-2,23.26-42.77,28.84-55.28,2.48-5.75,4.96-13.5,4.96-17.51,0-8.25-5.27-13.5-17.37-13.5-23.26,0-53.96,27.51-75.98,54.52l-0.93-.5Z" transform="translate(-153.094 -134)"/>
      <ellipse class="cls-4" cx="1764.906" cy="3754" rx="30" ry="20"/>
      <ellipse id="Ellipse_2_copy" data-name="Ellipse 2 copy" class="cls-4" cx="3426.906" cy="3754" rx="30" ry="20"/>
    </g>
    <circle class="cls-4" cx="4555.406" cy="623.5" r="37.5"/>
    <rect class="cls-4" x="4543.906" y="630" width="23" height="2821" rx="11.5" ry="11.5"/>
    <circle id="Ellipse_1_copy_3" data-name="Ellipse 1 copy 3" class="cls-4" cx="4691.406" cy="37.5" r="37.5"/>
    <rect id="Rectangle_2_copy_3" data-name="Rectangle 2 copy 3" class="cls-4" x="4679.906" y="44" width="23" height="3527" rx="11.5" ry="11.5"/>
    <circle id="Ellipse_1_copy" data-name="Ellipse 1 copy" class="cls-4" cx="374.406" cy="3440.5" r="37.5"/>
    <rect id="Rectangle_2_copy" data-name="Rectangle 2 copy" class="cls-4" x="387.906" y="3429" width="4179" height="23" rx="11.5" ry="11.5"/>
    <circle id="Ellipse_1_copy_2" data-name="Ellipse 1 copy 2" class="cls-4" cx="115.406" cy="3559.5" r="37.5"/>
    <rect id="Rectangle_2_copy_2" data-name="Rectangle 2 copy 2" class="cls-4" x="128.906" y="3548" width="4573" height="23" rx="11.5" ry="11.5"/>
  </g>
  <g id="Text-2" data-name="Text">
    <path id="Compassion._Competence._Integrity." data-name="Compassion. Competence. Integrity." class="cls-2" d="M5127.21,3569.71c0,113.26,86.17,192.38,192.38,192.38,78.58,0,146.31-39.02,175.03-112.72h-74.24c-20.05,40.1-55.81,59.07-100.79,59.07-74.78,0-128.97-53.65-128.97-138.73s54.19-138.18,128.97-138.18c44.98,0,80.74,18.97,100.79,59.07h74.24c-28.72-73.7-96.45-113.26-175.03-113.26C5213.38,3377.34,5127.21,3457,5127.21,3569.71Zm751.07,39.56c0-93.75-67.19-153.9-152.27-153.9s-152.28,60.15-152.28,153.9,64.49,154.44,149.57,154.44C5808.92,3763.71,5878.28,3703.02,5878.28,3609.27Zm-241.69,0c0-67.73,41.73-100.25,88.33-100.25,46.06,0,89.96,32.52,89.96,100.25s-45.52,100.8-91.58,100.8C5676.69,3710.07,5636.59,3677.01,5636.59,3609.27Zm753.23,149.57h61.24V3582.72c0-83.45-53.11-127.35-123.01-127.35-43.36,0-85.62,22.76-104.05,59.07-20.59-39.02-60.15-59.07-107.3-59.07-35.76,0-68.27,14.63-88.32,39.02v-34.14H5966.6v298.59h61.78V3591.93c0-54.73,29.8-82.91,75.32-82.91,44.98,0,74.78,28.18,74.78,82.91v166.91h61.24V3591.93c0-54.73,29.8-82.91,75.32-82.91,44.98,0,74.78,28.18,74.78,82.91v166.91Zm228.67-254.7v-43.89h-61.78v440.57h61.78V3715.49a135,135,0,0,0,104.05,48.22c78.57,0,140.35-63.4,140.35-155.52s-61.78-152.82-140.35-152.82C6673.76,3455.37,6637.46,3479.22,6618.49,3504.14Zm181.54,104.05c0,64.49-44.44,101.88-91.04,101.88-46.06,0-90.5-36.31-90.5-100.8,0-63.94,44.44-100.25,90.5-100.25C6755.59,3509.02,6800.03,3543.7,6800.03,3608.19Zm130.59,0c0,92.12,62.32,155.52,139.81,155.52,49.85,0,85.62-23.84,104.58-49.31v44.44h62.32V3460.25h-62.32v43.35c-18.42-24.38-53.1-48.23-103.5-48.23C6992.94,3455.37,6930.62,3516.07,6930.62,3608.19Zm244.39,1.08c0,64.49-43.89,100.8-90.49,100.8-46.06,0-90.5-37.39-90.5-101.88s44.44-99.17,90.5-99.17C7131.12,3509.02,7175.01,3545.33,7175.01,3609.27Zm393.42,66.11c-3.26-107.83-171.79-74.24-171.79-134.39,0-20.05,17.34-33.59,50.4-33.59,33.6,0,53.65,17.88,55.82,43.89h61.77c-3.25-59.61-47.68-95.92-115.42-95.92-70.45,0-114.88,38.48-114.88,86.17,0,109.46,173.4,75.86,173.4,134.39,0,20.59-18.96,35.76-54.73,35.76-34.14,0-57.44-20.05-59.61-44.43h-63.94c2.71,54.19,53.1,96.45,124.64,96.45C7524.53,3763.71,7568.43,3725.78,7568.43,3675.38Zm316.46,0c-3.25-107.83-171.78-74.24-171.78-134.39,0-20.05,17.34-33.59,50.39-33.59,33.6,0,53.65,17.88,55.82,43.89h61.78c-3.25-59.61-47.69-95.92-115.43-95.92-70.45,0-114.88,38.48-114.88,86.17,0,109.46,173.41,75.86,173.41,134.39,0,20.59-18.97,35.76-54.73,35.76-34.14,0-57.45-20.05-59.61-44.43h-63.95c2.71,54.19,53.11,96.45,124.64,96.45C7841,3763.71,7884.89,3725.78,7884.89,3675.38Zm93.74,83.46h61.78V3460.25h-61.78v298.59Zm31.43-338.15c21.68,0,39.02-17.34,39.02-39.56s-17.34-39.56-39.02-39.56A39.56,39.56,0,0,0,8010.06,3420.69Zm423.22,188.58c0-93.75-67.19-153.9-152.27-153.9s-152.28,60.15-152.28,153.9,64.49,154.44,149.57,154.44C8363.92,3763.71,8433.28,3703.02,8433.28,3609.27Zm-241.69,0c0-67.73,41.73-100.25,88.33-100.25,46.07,0,89.96,32.52,89.96,100.25s-45.52,100.8-91.58,100.8C8231.69,3710.07,8191.59,3677.01,8191.59,3609.27Zm541.89,149.57h61.24V3582.72c0-83.45-52.57-127.35-122.47-127.35-35.77,0-68.82,14.63-88.87,39.02v-34.14H8521.6v298.59h61.78V3591.93c0-54.73,29.8-82.91,75.32-82.91,44.98,0,74.78,28.18,74.78,82.91v166.91Zm230.84-35.77c0-22.22-17.34-39.56-39.02-39.56a39.56,39.56,0,1,0,0,79.12C8946.98,3762.63,8964.32,3745.29,8964.32,3723.07Zm241.14-153.36c0,113.26,86.16,192.38,192.37,192.38,78.58,0,146.32-39.02,175.04-112.72h-74.24c-20.05,40.1-55.82,59.07-100.8,59.07-74.78,0-128.97-53.65-128.97-138.73s54.19-138.18,128.97-138.18c44.98,0,80.75,18.97,100.8,59.07h74.24c-28.72-73.7-96.46-113.26-175.04-113.26C9291.62,3377.34,9205.46,3457,9205.46,3569.71Zm751.06,39.56c0-93.75-67.19-153.9-152.27-153.9s-152.27,60.15-152.27,153.9,64.48,154.44,149.56,154.44C9887.16,3763.71,9956.52,3703.02,9956.52,3609.27Zm-241.68,0c0-67.73,41.72-100.25,88.33-100.25,46.06,0,89.95,32.52,89.95,100.25s-45.52,100.8-91.58,100.8C9754.94,3710.07,9714.84,3677.01,9714.84,3609.27Zm753.26,149.57h61.2V3582.72c0-83.45-53.1-127.35-123-127.35-43.4,0-85.6,22.76-104.1,59.07-20.5-39.02-60.1-59.07-107.3-59.07-35.7,0-68.2,14.63-88.3,39.02v-34.14h-61.8v298.59h61.8V3591.93c0-54.73,29.8-82.91,75.3-82.91,45,0,74.8,28.18,74.8,82.91v166.91h61.3V3591.93c0-54.73,29.8-82.91,75.3-82.91,45,0,74.8,28.18,74.8,82.91v166.91Zm228.6-254.7v-43.89H10635v440.57h61.7V3715.49a135.126,135.126,0,0,0,104.1,48.22c78.6,0,140.3-63.4,140.3-155.52s-61.7-152.82-140.3-152.82C10752,3455.37,10715.7,3479.22,10696.7,3504.14Zm181.6,104.05c0,64.49-44.5,101.88-91.1,101.88-46,0-90.5-36.31-90.5-100.8,0-63.94,44.5-100.25,90.5-100.25C10833.8,3509.02,10878.3,3543.7,10878.3,3608.19Zm276.9-100.79c46,0,82.3,29.26,83.4,75.32h-165.3C11079.8,3535.57,11113.4,3507.4,11155.2,3507.4Zm139.8,162.57h-66.7c-11.4,23.3-32.5,41.72-70.4,41.72-45.5,0-80.8-29.8-85.1-79.12h228.1a182.235,182.235,0,0,0,2.2-30.34c0-87.79-60.1-146.86-145.2-146.86-88.3,0-149,60.15-149,153.9s63.4,154.44,149,154.44C11231,3763.71,11278.2,3721.99,11295,3669.97Zm105.6,5.96c0,60.69,33.1,82.91,86.2,82.91h48.8v-51.48h-38c-26,0-34.6-9.22-34.6-31.43V3510.65h72.6v-50.4H11463v-74.24h-62.4v74.24h-35.2v50.4h35.2v165.28Zm344.7-168.53c46,0,82.4,29.26,83.4,75.32h-165.2C11670,3535.57,11703.6,3507.4,11745.3,3507.4Zm139.8,162.57h-66.7c-11.3,23.3-32.5,41.72-70.4,41.72-45.5,0-80.7-29.8-85.1-79.12h228.2a193.452,193.452,0,0,0,2.1-30.34c0-87.79-60.1-146.86-145.2-146.86-88.3,0-149,60.15-149,153.9s63.4,154.44,149,154.44C11821.2,3763.71,11868.3,3721.99,11885.1,3669.97Zm307.8,88.87h61.2V3582.72c0-83.45-52.5-127.35-122.4-127.35-35.8,0-68.9,14.63-88.9,39.02v-34.14H11981v298.59h61.8V3591.93c0-54.73,29.8-82.91,75.3-82.91,45,0,74.8,28.18,74.8,82.91v166.91Zm146.3-149.57c0,93.75,60.7,154.44,146.3,154.44,73.2,0,120.8-40.64,137.6-99.16h-66.6c-11.4,30.89-34.2,47.14-71,47.14-49.9,0-82.9-36.85-82.9-102.42,0-65.03,33-101.87,82.9-101.87,36.8,0,60.7,18.42,71,47.14h66.6c-16.8-62.86-64.4-99.17-137.6-99.17C12399.9,3455.37,12339.2,3516.07,12339.2,3609.27Zm498.5-101.87c46.1,0,82.4,29.26,83.5,75.32h-165.3C12762.4,3535.57,12796,3507.4,12837.7,3507.4Zm139.8,162.57h-66.6c-11.4,23.3-32.5,41.72-70.5,41.72-45.5,0-80.7-29.8-85-79.12h228.1a193.586,193.586,0,0,0,2.2-30.34c0-87.79-60.2-146.86-145.3-146.86-88.3,0-149,60.15-149,153.9s63.4,154.44,149,154.44C12913.6,3763.71,12960.7,3721.99,12977.5,3669.97Zm159.9,53.1c0-22.22-17.4-39.56-39-39.56a39.56,39.56,0,1,0,0,79.12C13120,3762.63,13137.4,3745.29,13137.4,3723.07Zm261.7,35.77h61.8V3382.22h-61.8v376.62Zm382.1,0h61.2V3582.72c0-83.45-52.6-127.35-122.5-127.35-35.7,0-68.8,14.63-88.9,39.02v-34.14h-61.7v298.59h61.7V3591.93c0-54.73,29.8-82.91,75.4-82.91,44.9,0,74.8,28.18,74.8,82.91v166.91Zm176.6-82.91c0,60.69,33.1,82.91,86.2,82.91h48.7v-51.48h-37.9c-26,0-34.7-9.22-34.7-31.43V3510.65h72.6v-50.4h-72.6v-74.24h-62.3v74.24h-35.2v50.4h35.2v165.28Zm344.6-168.53c46.1,0,82.4,29.26,83.5,75.32h-165.3C14227.1,3535.57,14260.7,3507.4,14302.4,3507.4Zm139.9,162.57h-66.7c-11.4,23.3-32.5,41.72-70.4,41.72-45.6,0-80.8-29.8-85.1-79.12h228.1a193.586,193.586,0,0,0,2.2-30.34c0-87.79-60.2-146.86-145.2-146.86-88.4,0-149.1,60.15-149.1,153.9s63.4,154.44,149.1,154.44C14378.3,3763.71,14425.5,3721.99,14442.3,3669.97Zm75.3-61.78c0,92.12,62.3,155.52,140.9,155.52,48.7,0,84.5-24.38,103.5-49.85v49.85c0,59.61-35.8,88.88-83.5,88.88-42.8,0-75.9-21.14-85.1-52.03h-61.2c7.6,66.12,66.7,105.67,146.3,105.67,93.2,0,145.8-61.23,145.8-142.52V3460.25H14762v43.35c-18.5-25.47-54.8-48.23-103.5-48.23C14579.9,3455.37,14517.6,3516.07,14517.6,3608.19Zm244.4,1.08c0,64.49-43.9,100.8-90.5,100.8-46.1,0-90.5-37.39-90.5-101.88s44.4-99.17,90.5-99.17C14718.1,3509.02,14762,3545.33,14762,3609.27Zm232.4-7.58c0-63.41,28.2-82.37,73.7-82.37h15.7v-63.95c-42.2,0-72,18.43-89.4,48.23v-43.35h-61.7v298.59h61.7V3601.69Zm173.4,157.15h61.8V3460.25h-61.8v298.59Zm31.5-338.15c21.6,0,39-17.34,39-39.56s-17.4-39.56-39-39.56A39.56,39.56,0,1,0,15199.3,3420.69Zm148.4,255.24c0,60.69,33.1,82.91,86.2,82.91h48.8v-51.48h-38c-26,0-34.6-9.22-34.6-31.43V3510.65h72.6v-50.4h-72.6v-74.24h-62.4v74.24h-35.2v50.4h35.2v165.28Zm336.5,11.92-83.9-227.6h-68.9l117.6,293.71-60.7,145.23h64l183.1-438.94h-63.9Zm288.9,35.22c0-22.22-17.4-39.56-39-39.56a39.56,39.56,0,1,0,0,79.12C15955.7,3762.63,15973.1,3745.29,15973.1,3723.07Z" transform="translate(-153.094 -134)"/>
    <rect class="cls-4" x="4964.906" y="2869" width="12529" height="40" rx="20" ry="20"/>
    <path id="Capitol_University_Medical_Center" data-name="Capitol University Medical Center" class="cls-2" d="M5789.16,307.838q-6.255,27.585-21,43.078a37.226,37.226,0,0,1-26.67,10.922q-10.215,0-34.06-12.641-81.18-41.343-164.61-41.359-107.3,0-197.81,53.218-90.54,53.2-142.19,149.954t-51.66,212.281q0,143.438,78.55,249.265,105.3,142.3,297.13,142.284,106.425,0,183.84-47.89,77.415-47.91,135.48-151.112l-17.67-11q-68.85,95.672-126.31,127.832t-132.56,32.17q-86.49,0-153.89-41.03-67.44-41.044-101-117.988-33.57-76.921-33.57-181.812,0-127.1,35.52-212.594,35.505-85.5,97.44-124.531,61.92-39.048,138.65-39.047,91.455,0,156.82,52.172,65.34,52.172,100.57,170.828h18l-18-263h-21Zm700.68,642.484q22.77,54.141,22.78,79.218,0,18.8-16.24,31.91t-62.39,15.39v21h304.77v-21q-47.3-2.835-73.8-25.94-26.49-23.085-58.97-100.64L6338.15,307.838h-21.14L6045.37,943.15q-35.355,84-64.39,111.41-14.25,13.725-62.69,22.28v21h243.8v-21q-55.86-3.99-72.66-17.39-16.83-13.41-16.81-31.08,0-22.245,19.37-67.3l52.03-121.234h299.94ZM6162.05,797.838l134.44-312.25,130.02,312.25H6162.05Zm922.75-49.985a498.745,498.745,0,0,0,60.45,3.985q114.045,0,176.52-59.282,62.43-59.3,62.45-153.937,0-69.539-41.06-120.281t-100.93-72.125q-59.85-21.375-163.64-21.375H6795.22v21h29.19q44.04,0,66.36,25.14,15.435,17.719,15.45,90.86v499q0,66.288-11.44,84-21.18,32.01-70.37,32h-29.19v21h331v-21h-29.6q-43.845,0-65.46-25.14-15.945-17.73-15.94-90.862V735.9Q7052.3,743.87,7084.8,747.853Zm-69.58-366.172q45.6-10.827,74.72-10.843,47.9,0,85.56,21.39,37.635,21.4,58.19,64.469,20.52,43.078,20.53,93.266,0,73.031-43.06,118.953-43.08,45.938-102.39,45.922a336.378,336.378,0,0,1-39.94-2.844q-23.4-2.859-53.61-8.563V381.681Zm765.57,695.159a104.186,104.186,0,0,1-51.8-13.72q-18.24-10.26-23.91-24.56-7.4-18.855-7.4-77.722v-499q0-69.7,14.23-88,21.615-27.986,68.88-28h27.89v-21h-331v21h27.47a108.693,108.693,0,0,1,52.64,13.718q17.715,10.29,23.45,24.563,7.425,18.867,7.44,77.719v499q0,69.723-13.74,88-21.75,28.005-69.79,28h-27.47v21h331v-21h-27.89Zm123.9-752-8,180.765h21.66q3.99-52.406,25.05-83.187,21.045-30.75,50.65-41.594,22.785-7.968,76.86-7.984h92.78v591q0,65.058-12.71,83.332-20.82,29.67-70.54,29.67h-27.75v21h329v-21h-26.82q-45.105,0-66.77-23.97-15.42-17.67-15.41-89.032v-591h108.49q47.7,0,76.95,15.672t46.86,48.718q10.785,20.532,17.05,68.375h21.65l-8-180.765h-631Zm837.61,83.734q-125.415,116.109-125.4,299.922,0,179.859,108.59,293.1t268.2,113.25q157.875,0,269.05-116.1,111.135-116.109,111.16-291.953,0-170.72-110.32-284.844-110.3-114.093-260.78-114.109-151.635,0-260.5,100.734h0Zm423.33,16.875q78.255,97.595,78.27,296.156,0,183.188-71.13,268.219t-180.23,85.018q-102.255,0-164.52-77.612-81.135-102.139-81.12-291.593,0-184.875,78.26-280.766,62.835-77.016,166.81-77.031,110.82,0,173.66,77.609h0Zm885.27,563.734q-29.7,33.4-65.54,46.529-35.91,13.125-124.77,13.13h-56.41q-74.625,0-88.87-5.71t-21.08-17.7q-9.12-17.7-9.11-65.092v-486.5q0-68.532,9.1-86.657t33.81-30.015q24.7-11.907,86.09-11.328v-21h-349v21h29.03q43.83,0,66.03,25.14,15.945,18.282,15.94,90.86v499q0,65.958-11.95,84.152-21.075,31.86-70.02,31.85h-29.03v21h597.98l66-210-19-4Q10080.55,955.79,10050.9,989.181Zm986.4-643.343q43.8,0,66,25.14,15.9,18.282,15.9,90.86V774.072q0,122.859-22,174.328-22.05,51.47-82.2,84.45c-40,22-85.5,32.99-136.2,32.99q-59.55,0-100.5-21.05t-62.7-53.452q-21.75-32.415-30.1-90.438-8.25-58.008-8.3-102.937V461.838q0-65.133,14.3-85.719,20.4-30.282,68.2-30.281h29.5v-21h-333v21h29q43.8,0,63.4,22.3,19.65,22.289,19.6,93.7V763.306q0,139.36,18.3,189.985,27.3,73.963,92.9,117.749,65.55,43.785,192.2,43.8,116.25,0,183.9-45.83,67.5-45.825,90.6-109.875,23.1-64.032,23.1-180.188V465.838q0-64.266,12-81.891,24.45-38.109,70-38.109h29v-21h-272v21h29.1Zm264,0c22.4,0,39.1,1.7,50.2,5.109,22.4,7.188,39.3,14.953,50.9,23.266s28.6,25.531,51.1,51.625v538q0,65.058-12.8,83.332-20.7,29.67-71.1,29.67h-27.1v21h272v-21h-27.8c-30.4,0-53-7.99-67.6-23.97q-15.6-17.67-15.6-89.032V487.01l509.5,623.36h20.5V458.838q0-65.062,12.7-83.328,20.85-29.673,70.5-29.672h27.8v-21h-272v21h27.1c30.9,0,53.4,8,67.7,23.968q16.2,17.7,16.2,89.032V905.556l-472.7-580.718h-209.5v21Zm1213.5,731a104.214,104.214,0,0,1-51.8-13.72c-12.2-6.84-20.1-15.03-23.9-24.56q-7.35-18.855-7.4-77.722v-499q0-69.7,14.2-88,21.6-27.986,68.9-28h27.9v-21h-331v21h27.5a108.8,108.8,0,0,1,52.6,13.718q17.7,10.29,23.4,24.563,7.5,18.867,7.5,77.719v499q0,69.723-13.8,88-21.75,28.005-69.7,28h-27.5v21h331v-21h-27.9Zm670.6-752v21c4.6,0.765,7.8,1.328,9.7,1.7q39.3,6.281,55.8,21.375c11.1,10.062,16.6,20.609,16.6,31.625,0,17.094-9,47.672-26.8,91.734l-182.5,447.313-196.5-453.016q-26.25-60.375-26.2-88.891,0-20.507,15.9-33.609c10.7-8.734,33.8-14.812,69.6-18.234v-21h-315.4v21q35.25,2.859,56.1,12.843a99.544,99.544,0,0,1,35,27.657q9.15,11.438,31.4,62.765l288.8,665.737h21.6l269-656.909q23.4-57.75,53.6-85.781,21.15-18.867,62.1-26.312v-21h-237.8Zm731.2,42c38.5,0,65.3,2.875,80.6,8.609q28.5,12.047,43.1,35.016c9.8,15.312,18.6,43.437,26.6,84.375h22l-8-170h-597v21h27.5q48,0,68.7,22.718,14.85,17.04,14.8,90.282v502q0,56.859-6.6,75.232c-4.3,12.25-12.6,21.44-24.8,27.56a108.49,108.49,0,0,1-52.1,13.21h-27.5v21h596.2l66.8-194h-23q-37.05,71.438-72.4,106.862-27.45,26.85-57.1,36-29.7,9.135-95.3,9.14h-131.3c-21.3,0-35.7-2.19-43.3-6.56-7.7-4.38-13-10.27-16-17.71q-4.65-11.13-4.6-62.514V713.838h171q48.3,0,71.6,11.39,23.25,11.391,33.5,31.313,7.95,15.938,15.9,72.3h21v-269h-21q-3.45,65.952-32.9,92.093-22.2,19.923-88.1,19.907h-171v-305h212.7Zm1069.8,710q-63.15-6.84-102.5-32.03-39.45-25.17-94.1-101.816l-159.9-220.781q96.9-21.7,143.1-74.219t46.2-123.891q0-66.8-40.7-115.047-40.65-48.234-99-66.234-58.35-17.976-181.2-17.984h-281.1v21h29q43.95,0,66.1,25.14,15.9,17.719,15.9,90.86v499q0,66.288-11.9,84c-14.1,21.34-37.4,32-70.1,32h-29v21h331v-21H14518q-43.2,0-64.8-25.14-16.05-17.73-16-90.862v-224c6.1,0.375,12,.672,17.7.859s11,0.281,16,.281c12.1,0,27.9-.375,47.3-1.14l261.8,361h206.4v-21Zm-549.2-698q55.8-10.992,88.5-11,73.95,0,118.7,45.406,44.85,45.421,44.8,117.953,0,74.25-55.5,122.234-55.5,48-164.9,47.985c-3.4,0-7.7-.094-13-0.281q-7.8-.282-18.6-0.3v-322Zm1075.8-71c-3.8,17.687-8.8,29.437-15.1,35.265s-14.4,8.735-24.3,8.735c-8.7,0-23.8-4.7-45.1-14.11q-69-29.883-130.8-29.89-98.7,0-162.7,60.125-63.9,60.117-64,143.3,0,47.882,21.8,87.765,21.6,39.891,63.7,72.938,42,33.047,141.7,88.031,99.6,54.984,121.7,72.109,32.85,25.125,48.5,54.25,15.6,29.133,15.6,57.688,0,51.421-41.3,89.109-41.4,37.695-112.7,37.69-61.65,0-113.3-27.41-51.6-27.42-76.7-68.811-25.2-41.391-40-124.781h-21v265h21q4.05-26.865,12.3-35.42,8.25-8.58,22.5-8.58c9.9,0,33.3,6,70.4,18,37,12,61.5,18.95,73.2,20.86a371.874,371.874,0,0,0,63.3,5.14q107.1,0,175.2-63.39t68.1-150.94a192.6,192.6,0,0,0-21.3-88.11q-21.3-42.071-60.7-73.062-39.45-30.985-148-89.032-133.05-71.109-168.4-113.8-24.6-29.016-24.6-64.313,0-46.078,38.9-82.219,38.7-36.14,98.1-36.14,52.5,0,101.6,26.7,49.05,26.718,75.6,72.156t36.8,122.141h21v-267h-21Zm490.6,769a104.214,104.214,0,0,1-51.8-13.72c-12.1-6.84-20.1-15.03-23.9-24.56q-7.35-18.855-7.4-77.722v-499q0-69.7,14.2-88,21.6-27.986,68.9-28h27.9v-21h-331v21h27.5a108.514,108.514,0,0,1,52.6,13.718c11.8,6.86,19.7,15.047,23.5,24.563q7.35,18.867,7.4,77.719v499q0,69.723-13.7,88-21.75,28.005-69.8,28h-27.5v21h331v-21h-27.9Zm123.9-752-8,180.765h21.7c2.6-34.937,11-62.672,25-83.187,14.1-20.5,30.9-34.375,50.7-41.594q22.8-7.968,76.8-7.984h92.8v591q0,65.058-12.7,83.332-20.85,29.67-70.5,29.67h-27.8v21h329v-21h-26.8c-30.1,0-52.3-7.99-66.8-23.97q-15.45-17.67-15.4-89.032v-591H16604q47.7,0,77,15.672,29.25,15.68,46.8,48.718,10.8,20.532,17.1,68.375h21.6l-8-180.765h-631Zm1249.3,21c20.5,0,35.9,2.39,46.1,7.14q15.45,7.125,23.7,19.672a50.825,50.825,0,0,1,8.3,28.531q0,26.25-34.2,79.86l-152.4,238.281-160-249.125q-34.95-53.625-34.9-74.156,0-25.1,22.5-37.656a99.857,99.857,0,0,1,49.4-12.547h17.1v-21h-329.6v21c14.5,0,25.5,1.89,33.1,5.656q42.15,19.8,55.5,33.937,13.5,14.133,51,70.672l211.4,327.188V963.838q0,65.058-12.7,83.332-20.85,29.67-70.5,29.67h-27.8v21h331v-21h-25.4c-31.6,0-54.8-7.99-69.4-23.97q-16.2-17.67-16.2-89.032V768.088l186.3-291.328q34.2-55.453,57.6-80.032a167.966,167.966,0,0,1,51.8-37.734c19-8.766,33.5-13.156,43.3-13.156h14.9v-21h-269.9v21ZM5605.16,2490.93l298-650.44v516.44q0,65.055-12.71,83.32-20.25,29.685-70.54,29.68h-27.75v21h331v-21h-27.17q-46.26,0-67.64-23.97-16.185-17.67-16.19-89.03v-505q0-65.07,12.72-83.33,20.82-29.67,71.11-29.67h27.17v-21H5903.31l-276.1,605.04-280.33-605.04H5126.16v21q47.985,0,69.66,11.12t29.78,27.69q11.565,22.83,11.56,74.19v505q0,65.055-12.71,83.32-20.82,29.685-70.54,29.68h-27.75v21h272v-21h-27.75q-46.26,0-67.64-23.97-15.6-17.67-15.61-89.03V1840.49l299,650.44h19Zm1019.79-731q57.735,0,80.61,8.61,28.575,12.045,43.16,35.01t26.58,84.38h22l-8-170h-597v21h27.47q48.045,0,68.65,22.71,14.865,17.04,14.88,90.29v502q0,56.85-6.58,75.23t-24.89,27.56a108.394,108.394,0,0,1-52.06,13.21H6192.3v21h596.2l66.8-194h-23q-37.11,71.43-72.47,106.86-27.4,26.85-57.08,36t-95.3,9.14H6476.2q-31.965,0-43.37-6.57t-15.97-17.7q-4.575-11.13-4.56-62.52V2106.93h171q48.27,0,71.58,11.39,23.295,11.385,33.51,31.31,7.95,15.93,15.91,72.3h21v-269h-21q-3.42,65.94-32.96,92.09-22.17,19.92-88.04,19.91h-171v-305h212.65Zm646.23,731q225.24,0,335.31-120.86,98.085-108.285,98.1-269.63,0-120.285-55.04-212.06-55.02-91.785-145.42-131.11t-263.75-39.34H6925.59v21h29.03q43.83,0,66.03,25.14,15.93,18.27,15.94,90.86v499q0,65.715-12.52,84.57-20.505,31.44-69.45,31.43h-29.03v21h345.59Zm-125.59-713.47q65.67-16.53,117.11-16.53,137.085,0,224.48,92.39t87.41,252.61q0,159.09-87.41,252.04t-219.92,92.96q-49.125,0-121.67-15.97v-657.5Zm958.33,692.47a104.318,104.318,0,0,1-51.8-13.72q-18.225-10.275-23.9-24.57-7.41-18.84-7.41-77.71v-499q0-69.705,14.24-88,21.6-27.99,68.87-28h27.89v-21h-331v21h27.47a108.656,108.656,0,0,1,52.64,13.71q17.715,10.29,23.45,24.57,7.44,18.87,7.44,77.72v499q0,69.72-13.73,88-21.75,28.005-69.8,28h-27.47v21h331v-21h-27.89Zm760.91-769q-6.255,27.585-21,43.07a37.23,37.23,0,0,1-26.67,10.93q-10.23,0-34.07-12.64-81.18-41.355-164.61-41.36-107.295,0-197.81,53.21-90.54,53.2-142.19,149.96t-51.65,212.28q0,143.43,78.54,249.26,105.315,142.29,297.13,142.29,106.425,0,183.84-47.89,77.415-47.91,135.49-151.11l-17.67-11q-68.865,95.67-126.32,127.82-57.465,32.19-132.56,32.18-86.49,0-153.89-41.04-67.425-41.025-101-117.98-33.555-76.92-33.56-181.81,0-127.11,35.51-212.6t97.44-124.53q61.92-39.045,138.66-39.04,91.455,0,156.81,52.17t100.58,170.83h18l-18-263h-21Zm700.67,642.48q22.785,54.135,22.78,79.22,0,18.795-16.23,31.91t-62.39,15.39v21h304.76v-21q-47.3-2.835-73.8-25.94-26.475-23.085-58.96-100.64l-267.85-642.42h-21.14l-271.64,635.31q-35.34,84-64.39,111.4-14.25,13.74-62.69,22.29v21h243.8v-21q-55.86-3.99-72.66-17.39-16.83-13.41-16.81-31.08,0-22.245,19.38-67.3l52.03-121.23h299.93Zm-327.78-152.48,134.44-312.25,130.01,312.25H9237.72Zm1222.88,191.34c-19.7,22.27-41.6,37.78-65.5,46.53s-65.5,13.13-124.8,13.13h-56.4q-74.55,0-88.8-5.71c-9.5-3.81-16.5-9.7-21.1-17.7q-9.15-17.7-9.1-65.09v-486.5q0-68.535,9.1-86.66,9-18.12,33.8-30.02,24.75-11.895,86.1-11.32v-21H9874.88v21h29.03q43.83,0,66.03,25.14,15.945,18.27,15.94,90.86v499q0,65.94-11.95,84.15-21.075,31.86-70.02,31.85h-29.03v21h598.02l66-210-19-4Q10490.2,2348.87,10460.6,2382.27ZM11541,1700.93q-6.3,27.585-21,43.07a37.332,37.332,0,0,1-26.7,10.93c-6.8,0-18.2-4.21-34-12.64q-81.3-41.355-164.7-41.36-107.25,0-197.8,53.21-90.45,53.2-142.2,149.96-51.6,96.75-51.6,212.28,0,143.43,78.5,249.26,105.3,142.29,297.2,142.29,106.35,0,183.8-47.89,77.4-47.91,135.5-151.11l-17.7-11q-68.85,95.67-126.3,127.82-57.45,32.19-132.6,32.18-86.4,0-153.8-41.04-67.5-41.025-101-117.98-33.6-76.92-33.6-181.81,0-127.11,35.5-212.6,35.55-85.5,97.4-124.53,61.95-39.045,138.7-39.04,91.5,0,156.8,52.17,65.4,52.17,100.6,170.83h18l-18-263h-21Zm576.5,59c38.5,0,65.3,2.87,80.6,8.61q28.5,12.045,43.1,35.01c9.8,15.31,18.6,43.44,26.6,84.38h22l-8-170h-597v21h27.5q48,0,68.6,22.71,14.85,17.04,14.9,90.29v502q0,56.85-6.6,75.23c-4.4,12.25-12.6,21.44-24.9,27.56a108.107,108.107,0,0,1-52,13.21h-27.5v21H12281l66.8-194h-23q-37.05,71.43-72.5,106.86-27.3,26.85-57,36t-95.3,9.14h-131.3c-21.3,0-35.7-2.19-43.4-6.57q-11.4-6.555-15.9-17.7-4.65-11.13-4.6-62.52V2106.93h171q48.3,0,71.6,11.39,23.25,11.385,33.5,31.31,7.95,15.93,15.9,72.3h21v-269h-21q-3.45,65.94-32.9,92.09-22.2,19.92-88.1,19.91h-171v-305h212.7Zm265.5-21q33.6,0,50.1,5.11,33.6,10.77,51,23.26,17.4,12.465,51,51.63v538q0,65.055-12.7,83.32-20.85,29.685-71.1,29.68h-27.2v21h272v-21h-27.7c-30.5,0-53-7.99-67.7-23.97q-15.6-17.67-15.6-89.03V1880.1l509.6,623.36h20.4V1851.93q0-65.07,12.7-83.33,20.85-29.67,70.6-29.67h27.7v-21h-272v21h27.2c30.8,0,53.4,8,67.6,23.96q16.2,17.7,16.2,89.04v446.71l-472.6-580.71H12383v21Zm925.3-21-8,180.76h21.7c2.6-34.94,11-62.67,25-83.19q21.15-30.75,50.7-41.59,22.8-7.965,76.9-7.98h92.7v591q0,65.055-12.7,83.32-20.85,29.685-70.5,29.68h-27.8v21h329v-21h-26.8c-30.1,0-52.3-7.99-66.8-23.97-10.2-11.78-15.4-41.47-15.4-89.03v-591h108.5q47.7,0,77,15.67,29.25,15.675,46.8,48.72,10.8,20.52,17.1,68.37h21.6l-8-180.76h-631Zm1148,42c38.5,0,65.3,2.87,80.6,8.61q28.5,12.045,43.1,35.01c9.8,15.31,18.6,43.44,26.6,84.38h22l-8-170h-597v21h27.5q48,0,68.6,22.71c10,11.36,14.9,41.46,14.9,90.29v502q0,56.85-6.6,75.23c-4.3,12.25-12.6,21.44-24.8,27.56a108.776,108.776,0,0,1-52.1,13.21h-27.5v21h596.2l66.8-194h-23q-37.05,71.43-72.4,106.86-27.45,26.85-57.1,36-29.7,9.135-95.3,9.14h-131.3c-21.3,0-35.7-2.19-43.3-6.57-7.7-4.37-13-10.26-16-17.7q-4.65-11.13-4.6-62.52V2106.93h171q48.3,0,71.6,11.39,23.25,11.385,33.5,31.31,7.95,15.93,15.9,72.3h21v-269h-21q-3.45,65.94-32.9,92.09-22.2,19.92-88.1,19.91h-171v-305h212.7Zm1069.8,710q-63.15-6.855-102.5-32.04-39.45-25.17-94.1-101.81l-159.9-220.78q96.9-21.705,143.1-74.22t46.2-123.89q0-66.8-40.7-115.05-40.65-48.225-99-66.23-58.35-17.97-181.2-17.98h-281.1v21h29q43.95,0,66.1,25.14,15.9,17.715,15.9,90.86v499q0,66.27-11.9,84c-14.1,21.34-37.4,32-70.1,32h-29v21h331v-21h-30.2q-43.2,0-64.9-25.14-15.9-17.73-15.9-90.86v-224c6.1,0.37,12,.67,17.7.86s11,0.28,16,.28c12.1,0,27.9-.38,47.3-1.14l261.8,361h206.4v-21Zm-549.2-698q55.8-11,88.5-11,73.8,0,118.7,45.4,44.85,45.42,44.8,117.96,0,74.25-55.5,122.23-55.65,48-164.9,47.98c-3.4,0-7.7-.09-13-0.28-5.2-.18-11.4-0.29-18.6-0.29v-322Z" transform="translate(-153.094 -134)"/>
  </g>
</svg>
